<svg width="25" height="25" viewBox="0 0 25 25" fill="none" xmlns="http://www.w3.org/2000/svg">
<path d="M2.33501 24.771C1.6825 24.771 1.13021 24.5449 0.678125 24.0928C0.226042 23.6408 0 23.0885 0 22.4359V10.3143C0 9.6618 0.226042 9.1095 0.678125 8.65742C1.13021 8.20533 1.6825 7.97929 2.33501 7.97929H22.2067C22.8592 7.97929 23.4115 8.20533 23.8635 8.65742C24.3156 9.1095 24.5417 9.6618 24.5417 10.3143V22.4359C24.5417 23.0885 24.3156 23.6408 23.8635 24.0928C23.4115 24.5449 22.8592 24.771 22.2067 24.771H2.33501ZM2.33501 22.8335H22.2067C22.3061 22.8335 22.3972 22.792 22.4798 22.7091C22.5627 22.6265 22.6042 22.5354 22.6042 22.4359V10.3143C22.6042 10.2148 22.5627 10.1238 22.4798 10.0411C22.3972 9.95823 22.3061 9.91679 22.2067 9.91679H2.33501C2.23555 9.91679 2.14449 9.95823 2.06182 10.0411C1.97894 10.1238 1.9375 10.2148 1.9375 10.3143V22.4359C1.9375 22.5354 1.97894 22.6265 2.06182 22.7091C2.14449 22.792 2.23555 22.8335 2.33501 22.8335ZM2.26042 6.19098V4.25348H22.2812V6.19098H2.26042ZM6.13542 2.46484V0.527344H18.4062V2.46484H6.13542Z" fill="#9BBFF1"/>
<path d="M11.0234 20.45L18.0734 13.4L16.6734 12L11.0234 17.65L8.17344 14.8L6.77344 16.2L11.0234 20.45Z" fill="#9BBFF1"/>
</svg>
