<svg width="23" height="28" viewBox="0 0 23 28" fill="none" xmlns="http://www.w3.org/2000/svg">
<path fill-rule="evenodd" clip-rule="evenodd" d="M17.2527 0.0676907C18.0397 0.313638 18.7475 0.935076 19.0359 1.63328C19.1296 1.85984 19.2041 2.35754 19.2041 2.7557V3.47098H20.3358C21.5811 3.47098 21.9247 3.55913 22.3896 3.99814C23.028 4.60085 22.9998 4.05793 22.9998 15.7355C22.9998 24.6103 22.9739 26.5352 22.8505 26.8263C22.6699 27.2525 22.1882 27.725 21.7727 27.8835C21.567 27.962 18.829 28 13.3751 28C5.38064 28 5.27697 27.9973 4.81313 27.7705C4.50004 27.6174 4.25364 27.3861 4.07394 27.0764C3.83774 26.6695 3.80434 26.4825 3.80434 25.5672V24.5227L2.85541 24.4741C2.1686 24.439 1.78241 24.3607 1.45718 24.1908C0.893131 23.8959 0.298723 23.2034 0.134531 22.6498C-0.0448437 22.0455 -0.0448437 2.41722 0.134531 1.81286C0.297422 1.2637 0.889011 0.571083 1.45718 0.264251L1.90648 0.0215894L9.44369 0.00220705C13.5892 -0.00852439 17.1032 0.0209323 17.2527 0.0676907ZM2.00549 2.08093L1.74381 2.3882V12.2313V22.0745L2.00181 22.3775C2.22966 22.6448 2.35047 22.6855 3.03207 22.7244L3.80434 22.7685V13.8138V4.85906L4.07394 4.39454C4.25364 4.08486 4.50004 3.85359 4.81313 3.7005C5.27274 3.4758 5.41123 3.47098 11.3758 3.47098H17.4689V2.88776C17.4689 2.29885 17.2702 1.96519 16.8182 1.79502C16.7287 1.7614 13.4181 1.74278 9.46136 1.75373L2.26718 1.77366L2.00549 2.08093ZM5.53952 15.7363V26.2494L13.375 26.2213L21.2104 26.1932L21.2384 15.845C21.2538 10.1535 21.243 5.43528 21.2146 5.35994C21.174 5.25218 19.5008 5.22306 13.3512 5.22306H5.53952V15.7363ZM17.9618 10.3101C18.1297 10.4795 18.2281 10.704 18.2281 10.9173C18.2281 11.1306 18.1297 11.3551 17.9618 11.5245L17.6957 11.7933H13.2394H8.78312L8.51699 11.5245C8.34911 11.3551 8.25075 11.1306 8.25075 10.9173C8.25075 10.704 8.34911 10.4795 8.51699 10.3101L8.78312 10.0413H13.2394H17.6957L17.9618 10.3101ZM17.9618 13.8142C18.1297 13.9836 18.2281 14.2081 18.2281 14.4214C18.2281 14.6348 18.1297 14.8592 17.9618 15.0286L17.6957 15.2975H13.2394H8.78312L8.51699 15.0286C8.34911 14.8592 8.25075 14.6348 8.25075 14.4214C8.25075 14.2081 8.34911 13.9836 8.51699 13.8142L8.78312 13.5454H13.2394H17.6957L17.9618 13.8142ZM17.9618 17.3184C18.1297 17.4878 18.2281 17.7123 18.2281 17.9256C18.2281 18.1389 18.1297 18.3634 17.9618 18.5328L17.6957 18.8016H13.2394H8.78312L8.51699 18.5328C8.34911 18.3634 8.25075 18.1389 8.25075 17.9256C8.25075 17.7123 8.34911 17.4878 8.51699 17.3184L8.78312 17.0495H13.2394H17.6957L17.9618 17.3184Z" fill="#045FDD" fill-opacity="0.4"/>
</svg>
