<svg width="28" height="28" viewBox="0 0 28 28" fill="none" xmlns="http://www.w3.org/2000/svg">
<path fill-rule="evenodd" clip-rule="evenodd" d="M21.5295 0.114581C21.4019 0.189796 21.3078 0.505185 21.2653 1.00067C21.2 1.75948 21.1929 1.77129 20.753 1.85463C20.2356 1.95262 19.7441 2.26789 19.358 2.74959C19.1382 3.02362 19.0768 3.3134 19.0398 4.24996L18.9941 5.4107H14.0147H9.03525L8.88123 4.87397C8.70845 4.27224 8.01443 3.61414 7.42596 3.49411C6.74013 3.35415 6.73484 3.34787 6.73484 2.65357C6.73484 1.88529 6.52019 1.59452 5.95337 1.59452C5.4032 1.59452 5.14972 1.93859 5.14972 2.68521C5.14972 3.34541 5.14166 3.35476 4.4586 3.49411C3.88228 3.61168 3.17597 4.27274 3.01046 4.84935C2.87176 5.33253 2.82566 5.36983 2.19425 5.50955C1.40248 5.68484 0.705684 6.17282 0.297382 6.83807L0.00241655 7.31878L0.000170931 14.3713C-0.00181048 21.1117 0.0094175 21.4445 0.254452 21.8923C0.589441 22.5041 1.31807 23.0915 1.94287 23.2532C2.24009 23.3301 4.0569 23.3825 6.43763 23.3829L10.4335 23.3837V24.9809V26.5782L8.29183 26.612L6.15019 26.6459L5.94717 26.9844C5.76448 27.289 5.76448 27.3569 5.9473 27.6615L6.15059 28H14H21.8494L22.0527 27.6615C22.2355 27.3569 22.2355 27.289 22.0528 26.9844L21.8498 26.6459L19.7082 26.612L17.5665 26.5782V24.9809V23.3837L21.5624 23.3829C23.9431 23.3825 25.7599 23.3301 26.0571 23.2532C26.6819 23.0915 27.4106 22.5041 27.7456 21.8923C27.9906 21.4445 28.0018 21.1117 27.9998 14.3713L27.9976 7.31878L27.7026 6.83807C27.293 6.17073 26.597 5.68472 25.7972 5.5077L25.1194 5.35764L25.0746 4.22337C25.0387 3.31291 24.9761 3.02226 24.7575 2.74959C24.3713 2.26789 23.8798 1.95262 23.3624 1.85463C22.9282 1.7724 22.9153 1.75234 22.8752 1.09903C22.8512 0.705103 22.7473 0.338381 22.6236 0.211093C22.3955 -0.0239094 21.8468 -0.0722887 21.5295 0.114581ZM23.157 3.47183C23.3636 3.61303 23.3793 4.02247 23.3475 8.42671L23.3126 13.2277H22.0577H20.8028L20.768 8.42671C20.7279 2.90261 20.6231 3.31795 22.0577 3.31795C22.5488 3.31795 23.0306 3.38541 23.157 3.47183ZM7.11686 5.08694C7.22372 5.20684 7.25701 6.35465 7.23217 9.05699L7.19717 12.8584H5.94228H4.68739L4.65225 9.04222C4.62028 5.56383 4.63719 5.21238 4.8426 5.07216C5.15962 4.85587 6.92123 4.86732 7.11686 5.08694ZM2.90703 9.93471C2.90954 12.5186 2.93847 12.917 3.15563 13.3625C3.41836 13.9017 4.04779 14.3457 4.72966 14.4728C5.12673 14.5467 5.13902 14.5694 5.1768 15.2998C5.2118 15.9736 5.25315 16.0701 5.57902 16.2395C5.90542 16.4093 5.97913 16.4093 6.30554 16.2395C6.63154 16.0701 6.67276 15.9738 6.70776 15.2982C6.74607 14.5588 6.75413 14.5443 7.17009 14.471C7.83571 14.3537 8.41785 13.9576 8.71096 13.4221C8.96009 12.967 8.98044 12.7064 8.98044 9.97041V7.01103H14H19.0196V10.1623C19.0196 12.8286 19.053 13.3791 19.2363 13.7392C19.5116 14.28 20.18 14.7577 20.7905 14.8501L21.2652 14.9218V15.6038C21.2652 16.6267 21.8161 17.0279 22.5566 16.5445C22.8041 16.3831 22.8503 16.2377 22.8503 15.6212C22.8503 14.9451 22.8729 14.8895 23.1475 14.8876C23.7064 14.8838 24.4856 14.3638 24.7987 13.7858C25.0835 13.2598 25.0959 13.1077 25.0959 10.124C25.0959 7.12281 25.1051 7.01103 25.3527 7.01103C25.494 7.01103 25.7763 7.14472 25.9801 7.30807L26.3508 7.60524V14.3972V21.1891L25.9801 21.4863L25.6095 21.7833H14H2.39054L2.01989 21.4863L1.64923 21.1891V14.3972V7.60524L2.01989 7.30807C2.22371 7.14472 2.50599 7.01103 2.64733 7.01103C2.89435 7.01103 2.90425 7.12194 2.90703 9.93471ZM13.5011 7.94131C13.2549 8.10196 13.2074 8.24858 13.2074 8.84919C13.2074 9.55334 13.2004 9.56676 12.7933 9.64259C12.1161 9.76877 11.5267 10.1868 11.2354 10.7476C10.9834 11.2328 10.9621 11.4911 10.9647 14.036C10.9673 16.4929 10.9957 16.8552 11.2213 17.3183C11.4938 17.8779 12.0758 18.2876 12.7722 18.4103C13.1882 18.4836 13.1962 18.4981 13.2345 19.2374C13.2695 19.913 13.3107 20.0094 13.6367 20.1788C13.9631 20.3486 14.0369 20.3486 14.3633 20.1788C14.6893 20.0094 14.7305 19.913 14.7655 19.2374C14.8038 18.4981 14.8118 18.4836 15.2278 18.4103C15.9242 18.2876 16.5062 17.8779 16.7787 17.3183C17.0043 16.8552 17.0327 16.4929 17.0353 14.036C17.0379 11.4911 17.0166 11.2328 16.7646 10.7476C16.4733 10.1868 15.8839 9.76877 15.2067 9.64259C14.7996 9.56676 14.7926 9.55334 14.7926 8.84919C14.7926 8.24858 14.7451 8.10196 14.4989 7.94131C14.3375 7.83594 14.1129 7.74964 14 7.74964C13.8871 7.74964 13.6625 7.83594 13.5011 7.94131ZM15.1585 11.2995C15.2875 11.3759 15.318 12.0208 15.2906 14.0982L15.2549 16.7977H14H12.7451L12.7094 14.0982C12.682 12.0208 12.7125 11.3759 12.8415 11.2995C12.9339 11.2449 13.4551 11.2003 14 11.2003C14.5449 11.2003 15.0661 11.2449 15.1585 11.2995ZM15.8493 24.984V26.5843H14H12.1507V24.984V23.3837H14H15.8493V24.984Z" fill="#9BBFF1"/>
</svg>
