<svg width="16" height="16" viewBox="0 0 16 16" fill="none" xmlns="http://www.w3.org/2000/svg">
<path d="M3.00518 12.4665C2.70507 12.4665 2.45141 12.3629 2.24418 12.1555C2.03696 11.9482 1.93335 11.6944 1.93335 11.394V4.60037C1.93335 4.30004 2.03696 4.04709 2.24418 3.84154C2.45141 3.63598 2.70507 3.5332 3.00518 3.5332H12.9948C13.295 3.5332 13.5486 3.63687 13.7558 3.8442C13.9631 4.05154 14.0667 4.30537 14.0667 4.6057V11.3994C14.0667 11.6997 13.9631 11.9526 13.7558 12.1582C13.5486 12.3638 13.295 12.4665 12.9948 12.4665H3.00518ZM8.00002 8.50504L2.80002 5.4447V11.3947C2.80002 11.4546 2.81924 11.5038 2.85768 11.5422C2.89613 11.5806 2.94529 11.5999 3.00518 11.5999H12.9948C13.0547 11.5999 13.1039 11.5806 13.1423 11.5422C13.1808 11.5038 13.2 11.4546 13.2 11.3947V5.4447L8.00002 8.50504ZM8.00002 7.3832L13.0975 4.39987H2.90252L8.00002 7.3832ZM2.80002 5.4447V4.39987V11.3947C2.80002 11.4546 2.81924 11.5038 2.85768 11.5422C2.89613 11.5806 2.94529 11.5999 3.00518 11.5999H2.80002V5.4447Z" fill="#0F0E0E"/>
</svg>
