<svg width="28" height="28" viewBox="0 0 28 28" fill="none" xmlns="http://www.w3.org/2000/svg">
<path fill-rule="evenodd" clip-rule="evenodd" d="M14.759 6.60636L14.7873 13.2127L21.3936 13.241L28 13.2693V12.2959C28 10.5885 27.4761 8.3625 26.7259 6.88191C25.5851 4.63059 23.3781 2.4182 21.1469 1.28914C19.6103 0.511623 17.4485 0 15.6991 0H14.7307L14.759 6.60636ZM18.3094 2.02906C21.2367 2.77138 23.8514 4.88926 25.2027 7.61261C25.7008 8.61645 26.2456 10.4611 26.2456 11.1434V11.5132H21.3662H16.4868V6.63377V1.75439H16.8566C17.0599 1.75439 17.7137 1.87796 18.3094 2.02906ZM10.9056 3.40987C5.80735 4.0148 1.64222 7.65866 0.285307 12.7007C0.0291668 13.6523 0 13.9577 0 15.6798C0 17.3975 0.0296052 17.7088 0.282566 18.6485C0.905592 20.9622 1.93794 22.7613 3.5886 24.4104C5.225 26.0452 7.06546 27.1023 9.34101 27.7147C10.2927 27.9708 10.598 28 12.3202 28C14.0423 28 14.3477 27.9708 15.2993 27.7147C19.6829 26.5351 23.0667 23.2123 24.2173 18.9576C24.5055 17.8924 24.8052 15.3171 24.6793 14.989C24.6133 14.8169 24.1712 14.8026 18.9035 14.8026H13.1993L13.1709 9.07347L13.1425 3.3443L12.4298 3.32895C12.0378 3.3205 11.3519 3.35691 10.9056 3.40987ZM11.443 9.34682V13.6498L8.42763 10.636C6.76919 8.9784 5.41228 7.5909 5.41228 7.55285C5.41228 7.41842 7.06831 6.34079 7.74364 6.03575C8.91667 5.50592 10.387 5.08794 11.1963 5.05417L11.443 5.04386V9.34682ZM7.71491 12.2259L11.1675 15.6798L7.71491 19.1338C5.81601 21.0334 4.22489 22.5877 4.17917 22.5877C4.01382 22.5877 3.08399 21.206 2.6602 20.3305C2.42171 19.8377 2.09726 18.9475 1.93925 18.3522C1.69211 17.4215 1.65175 17.0469 1.65175 15.6798C1.65175 14.3167 1.69243 13.9372 1.93629 13.0189C2.09276 12.4297 2.42138 11.547 2.66656 11.0572C3.11217 10.1669 4.03904 8.77193 4.18487 8.77193C4.22741 8.77193 5.81601 10.3262 7.71491 12.2259ZM22.9062 17.0779C22.5497 19.5603 21.4193 21.734 19.5788 23.4763C17.4871 25.4566 15.1623 26.3736 12.2654 26.3612C10.6253 26.3542 9.44748 26.1148 8.02993 25.5005C7.16382 25.1252 5.78564 24.276 5.51678 23.9522C5.392 23.8019 5.84485 23.3076 8.98322 20.1681L12.5931 16.557H17.7871H22.981L22.9062 17.0779Z" fill="#9BBFF1"/>
</svg>
