<svg width="16" height="16" viewBox="0 0 16 16" fill="none" xmlns="http://www.w3.org/2000/svg">
<path d="M12.7168 13.5837C11.3723 13.4837 10.0973 13.1532 8.89176 12.5921C7.6862 12.0309 6.60564 11.2726 5.65009 10.3171C4.69453 9.3615 3.94176 8.28372 3.39176 7.08372C2.84176 5.88372 2.5112 4.6115 2.40009 3.26706C2.37787 3.03372 2.44614 2.83095 2.60492 2.65872C2.76359 2.4865 2.96198 2.40039 3.20009 2.40039H5.46676C5.65564 2.40039 5.81953 2.45872 5.95842 2.57539C6.09731 2.69206 6.18898 2.83928 6.23342 3.01706L6.63342 4.78372C6.65564 4.92817 6.64731 5.06706 6.60842 5.20039C6.56953 5.33372 6.50564 5.44484 6.41676 5.53372L4.80009 7.16706C5.02231 7.58928 5.27787 7.99484 5.56676 8.38372C5.85564 8.77261 6.1777 9.13917 6.53292 9.48339C6.86659 9.81695 7.22231 10.1254 7.60009 10.4087C7.97787 10.6921 8.37787 10.9448 8.80009 11.1671L10.4501 9.56706C10.539 9.47817 10.6501 9.41428 10.7834 9.37539C10.9168 9.3365 11.0556 9.32817 11.2001 9.35039L12.9834 9.73372C13.1723 9.78928 13.3223 9.8865 13.4334 10.0254C13.5445 10.1643 13.6001 10.3282 13.6001 10.5171V12.7837C13.6001 13.0218 13.5112 13.2202 13.3334 13.3789C13.1556 13.5377 12.9501 13.6059 12.7168 13.5837ZM4.25009 6.00039L5.41676 4.83372L5.13076 3.60039H3.63342C3.68898 4.02261 3.76676 4.43095 3.86676 4.82539C3.96676 5.21984 4.09453 5.6115 4.25009 6.00039ZM9.98342 11.7337C10.3734 11.8919 10.7709 12.0176 11.1759 12.1107C11.5809 12.2038 11.989 12.2782 12.4001 12.3337V10.8337L11.1501 10.5671L9.98342 11.7337Z" fill="#0F0E0E"/>
</svg>
