<svg width="21" height="21" viewBox="0 0 21 21" fill="none" xmlns="http://www.w3.org/2000/svg">
<path fill-rule="evenodd" clip-rule="evenodd" d="M13.4924 0.127536C13.024 0.492766 12.9994 1.21889 13.4417 1.63005C13.6647 1.83758 13.857 1.85782 15.9176 1.89085C18.3494 1.92988 18.502 1.96692 18.9537 2.62942C19.1443 2.90913 19.1588 3.38402 19.188 10.3005C19.218 17.4479 19.2121 17.6885 18.9973 18.1721C18.6311 18.9962 18.2551 19.1039 15.7345 19.1069C13.8601 19.1091 13.6263 19.1304 13.3913 19.3199C12.9972 19.6376 13.0231 20.376 13.4409 20.7338C13.7456 20.9947 13.7949 21 15.9035 21C18.6126 21 18.9712 20.9116 19.8814 20.019C20.35 19.5594 20.5901 19.2121 20.7627 18.7437C20.9961 18.1106 21 17.9736 21 10.4346C21 3.03124 20.9923 2.74865 20.7757 2.17222C20.4844 1.39716 19.9426 0.777253 19.197 0.366092L18.5984 0.0360064L16.141 0.00731305C14.2219 -0.0151523 13.6416 0.0112057 13.4924 0.127536ZM2.65549 7.74019C0.655356 9.7316 0 10.4504 0 10.6527C0 10.8549 0.656697 11.5767 2.65348 13.5695L5.30708 16.2178H5.81465C6.42377 16.2178 6.59043 16.0774 6.59043 15.5642C6.59043 15.2143 6.42857 15.015 4.89434 13.476L3.19837 11.7746L9.48407 11.7441L15.7699 11.7136L15.9833 11.451C16.3002 11.0612 16.2654 10.4264 15.9086 10.0925L15.6204 9.82291L9.4662 9.79144L3.31186 9.75996L5.00705 8.05949C6.54507 6.5166 6.70213 6.32298 6.70213 5.96954C6.70213 5.43827 6.32848 5.09628 5.74808 5.09628C5.32652 5.09628 5.21671 5.19015 2.65549 7.74019Z" fill="#EA3C4E"/>
</svg>
