<svg width="28" height="25" viewBox="0 0 28 25" fill="none" xmlns="http://www.w3.org/2000/svg">
<path fill-rule="evenodd" clip-rule="evenodd" d="M15.7731 0.115901C16.5692 0.418981 16.8845 0.768792 17.7306 2.28699C18.0476 2.8557 18.3442 3.3211 18.3897 3.3211C18.4351 3.3211 19.0348 3.17051 19.7224 2.98639C21.1602 2.60147 21.7807 2.57207 22.4022 2.8595C22.8951 3.08745 23.4815 3.63872 23.7087 4.08758C23.7909 4.25013 24.0166 4.99324 24.21 5.73892L24.5619 7.09468L25.4023 7.14544C26.3228 7.20111 26.7494 7.37574 27.2774 7.91337C28.0429 8.69281 27.9996 8.20258 27.9996 16.0659C27.9996 23.9292 28.0429 23.439 27.2774 24.2184C26.4972 25.0128 27.5672 24.9504 14.1648 24.9848C0.752522 25.0193 1.58074 25.0634 0.781731 24.2733C-0.0505524 23.4503 0.000612259 23.9881 0.000612259 16.0659C0.000612259 9.56147 0.0164242 8.93742 0.189579 8.61533C0.469019 8.09559 1.00956 7.5867 1.58107 7.30553C1.85919 7.16869 4.76735 5.4809 8.04366 3.55498C13.88 0.124062 14.0144 0.0522888 14.6866 0.00824105C15.1042 -0.0191491 15.5293 0.0229982 15.7731 0.115901ZM12.2867 3.16459C10.9644 3.93934 9.1511 5.0014 8.25711 5.52483C7.36301 6.04826 6.64657 6.49109 6.66502 6.50898C6.7018 6.54475 16.4348 3.89797 16.496 3.83548C16.5171 3.81413 16.3019 3.39187 16.0179 2.89706C15.5265 2.04092 15.262 1.78044 14.867 1.76356C14.7701 1.75931 13.609 2.38984 12.2867 3.16459ZM16.4922 5.75268L11.6604 7.06628L17.1297 7.09524C20.1378 7.11123 22.6219 7.10094 22.65 7.07232C22.708 7.01329 22.274 5.31913 22.103 4.9369C21.9999 4.7066 21.665 4.46523 21.4228 4.44667C21.3685 4.44242 19.1498 5.03014 16.4922 5.75268ZM2.21385 9.03502C2.06672 9.10333 1.89147 9.28175 1.82438 9.43156C1.65321 9.81424 1.65321 22.3175 1.82438 22.7002C1.89147 22.85 2.06672 23.0285 2.21385 23.0968C2.59299 23.2726 25.4072 23.2726 25.7863 23.0968C25.9334 23.0285 26.1087 22.85 26.1758 22.7002C26.3473 22.3168 26.347 9.81413 26.1753 9.43067C26.108 9.2803 25.9475 9.10523 25.8185 9.04173C25.477 8.87336 2.57641 8.86688 2.21385 9.03502ZM15.0791 12.6476C17.0379 13.2976 18.0458 15.6183 17.2073 17.5481C16.9206 18.2079 16.113 19.0329 15.449 19.3438C14.7199 19.6853 13.2802 19.6853 12.5512 19.3438C11.8909 19.0346 11.0843 18.2134 10.7808 17.5412C10.4453 16.7988 10.4453 15.333 10.7808 14.5906C11.0871 13.9125 11.8966 13.0922 12.5512 12.7967C13.2019 12.5029 14.4256 12.4307 15.0791 12.6476ZM13.2273 14.5287C12.6999 14.7995 12.2433 15.5128 12.2433 16.0659C12.2433 16.2243 12.3544 16.5784 12.4903 16.8527C12.7563 17.3897 13.4569 17.8546 14.0001 17.8546C14.5433 17.8546 15.2439 17.3897 15.5098 16.8527C15.6458 16.5784 15.7569 16.2243 15.7569 16.0659C15.7569 15.5128 15.3002 14.7995 14.7729 14.5287C14.5034 14.3903 14.1557 14.2772 14.0001 14.2772C13.8445 14.2772 13.4968 14.3903 13.2273 14.5287ZM23.4348 15.4661C23.7429 15.8648 23.7264 16.3464 23.3929 16.6858C23.13 16.9536 23.0819 16.9603 21.4245 16.9603H19.7256L19.4981 16.6657C19.19 16.267 19.2066 15.7854 19.54 15.446C19.8029 15.1782 19.851 15.1715 21.5084 15.1715H23.2073L23.4348 15.4661ZM8.46013 15.446C8.6301 15.6189 8.72969 15.8481 8.72969 16.0659C8.72969 16.2837 8.6301 16.5129 8.46013 16.6858C8.19727 16.9536 8.14918 16.9603 6.49175 16.9603H4.79282L4.56532 16.6657C4.25722 16.267 4.2738 15.7854 4.60726 15.446C4.86957 15.1788 4.92085 15.1715 6.5337 15.1715C8.14655 15.1715 8.19782 15.1788 8.46013 15.446Z" fill="#9BBFF1"/>
</svg>
