<svg width="28" height="28" viewBox="0 0 28 28" fill="none" xmlns="http://www.w3.org/2000/svg">
<path fill-rule="evenodd" clip-rule="evenodd" d="M2.34067 0.177947C1.67043 0.411371 1.01987 0.90733 0.612851 1.495C-0.0132103 2.39904 2.17642e-05 2.16879 2.17642e-05 12.1489V21.3291L0.26849 21.5976C0.813847 22.1435 0.964102 22.0625 3.82102 19.6808L6.44249 17.4953L13.3094 17.4647C20.0926 17.4345 20.1824 17.4313 20.6897 17.1967C21.3472 16.8927 22.1502 16.0891 22.454 15.4311C22.6887 14.923 22.6913 14.8478 22.6913 8.73411C22.6913 2.62042 22.6887 2.54524 22.454 2.03714C22.1502 1.3791 21.3472 0.575523 20.6897 0.271513C20.178 0.0349151 20.1451 0.0339302 11.537 0.00886964C3.50881 -0.01444 2.85858 -0.00251159 2.34067 0.177947ZM20.0163 1.97651C20.3728 2.15642 20.5705 2.35428 20.7503 2.71104C20.9958 3.19824 20.9963 3.21192 20.9963 8.73411C20.9963 14.2563 20.9958 14.27 20.7503 14.7572C20.5705 15.1139 20.3728 15.3118 20.0163 15.4917L19.5283 15.7379H12.6644H5.80047L3.83108 17.3795C2.74791 18.2823 1.83654 19.021 1.8057 19.021C1.77486 19.021 1.74971 15.4611 1.74971 11.1102V3.19933L1.99576 2.71104C2.17554 2.35428 2.37326 2.15642 2.72976 1.97651L3.2177 1.73028H11.373H19.5283L20.0163 1.97651ZM5.51756 5.50086C5.34828 5.67016 5.24909 5.8945 5.24909 6.10768C5.24909 6.32086 5.34828 6.5452 5.51756 6.71449L5.78592 6.98316H11.373H16.9601L17.2285 6.71449C17.3977 6.5452 17.4969 6.32086 17.4969 6.10768C17.4969 5.8945 17.3977 5.67016 17.2285 5.50086L16.9601 5.2322H11.373H5.78592L5.51756 5.50086ZM23.9036 7.23737C23.3598 7.78159 23.7188 8.73411 24.4676 8.73411C25.0412 8.73411 25.7296 9.17875 26.0001 9.72384L26.2469 10.2212L26.2188 17.7271L26.1907 25.2331L24.6268 23.9874L23.063 22.7418H16.6397H10.2165L9.72852 22.4956C9.05511 22.1558 8.74848 21.5391 8.74848 20.525C8.74848 19.8769 8.71272 19.7413 8.48001 19.5085C8.11979 19.1479 7.62244 19.153 7.25479 19.5209C6.98424 19.7916 6.9756 19.8408 7.01978 20.8615C7.05303 21.6284 7.12957 22.063 7.29689 22.4349C7.59106 23.0888 8.3934 23.8946 9.05511 24.2005C9.56099 24.4345 9.664 24.4385 15.9979 24.4688L22.427 24.4994L24.6126 26.2471C27.0002 28.1562 27.2015 28.2516 27.7291 27.7236L28 27.4525L27.9703 18.5037C27.9405 9.58289 27.9396 9.55323 27.7031 9.04097C27.3982 8.38053 26.5908 7.5741 25.9512 7.291C25.6755 7.16898 25.1657 7.04334 24.8182 7.01183C24.2453 6.95985 24.16 6.98086 23.9036 7.23737ZM5.51756 9.00278C5.34828 9.17207 5.24909 9.39641 5.24909 9.60959C5.24909 9.82277 5.34828 10.0471 5.51756 10.2164L5.78592 10.4851H9.62332H13.4607L13.7291 10.2164C13.8984 10.0471 13.9975 9.82277 13.9975 9.60959C13.9975 9.39641 13.8984 9.17207 13.7291 9.00278L13.4607 8.73411H9.62332H5.78592L5.51756 9.00278Z" fill="#9BBFF1"/>
</svg>
