<svg width="25" height="28" viewBox="0 0 25 28" fill="none" xmlns="http://www.w3.org/2000/svg">
<path fill-rule="evenodd" clip-rule="evenodd" d="M10.758 0.0631645C6.56622 0.836084 3.25015 4.28848 2.7051 8.44698C2.64186 8.92896 2.51699 11.0239 2.42735 13.1025C2.33782 15.181 2.23644 17.2365 2.20218 17.6703L2.1398 18.459L1.66489 18.6928C1.05951 18.9906 0.390132 19.7619 0.17207 20.4125C-0.212662 21.5605 0.0537737 22.699 0.911153 23.5707C1.77424 24.4482 1.9992 24.4947 5.38886 24.4947H8.25889L8.43892 25.0698C8.95434 26.7154 10.7347 28 12.5 28C14.2653 28 16.0457 26.7154 16.5611 25.0698L16.7411 24.4947H19.6111C23.0008 24.4947 23.2258 24.4482 24.0888 23.5707C24.9462 22.699 25.2127 21.5605 24.8279 20.4125C24.6099 19.7619 23.9405 18.9906 23.3351 18.6928L22.8602 18.459L22.7979 17.6703C22.7637 17.2365 22.6626 15.2056 22.5734 13.1572C22.3841 8.81558 22.3474 8.38826 22.0707 7.3106C21.3648 4.56157 19.2417 2.02164 16.6514 0.82754C15.3369 0.22156 14.5201 0.0464047 12.8232 0.00686053C11.964 -0.0131854 11.0347 0.012228 10.758 0.0631645ZM14.6668 1.97914C16.8603 2.58928 18.7819 4.18759 19.7607 6.21585C20.5208 7.79105 20.5652 8.07158 20.7978 12.7738C20.9126 15.0934 21.0075 17.2993 21.0089 17.6758L21.0113 18.3604H12.5H3.98869L3.99106 17.6758C3.99246 17.2993 4.08738 15.0934 4.20223 12.7738C4.41329 8.50679 4.47804 7.98789 4.95241 6.76421C5.83726 4.48193 8.24187 2.41468 10.5607 1.94255C10.8866 1.87617 11.2502 1.79906 11.3688 1.77123C11.7955 1.67089 14.0752 1.81461 14.6668 1.97914ZM22.5164 20.2532C22.8672 20.4337 23.2739 21.0586 23.2734 21.4164C23.2732 21.5731 23.1784 21.8593 23.0626 22.052C22.6258 22.7806 23.2186 22.742 12.4675 22.742H2.72773L2.36314 22.4923C2.16275 22.3549 1.93542 22.1207 1.85817 21.972C1.56189 21.401 1.91807 20.4767 2.53423 20.2176C2.65274 20.1677 7.13734 20.1246 12.5 20.1216C20.0942 20.1174 22.3091 20.1466 22.5164 20.2532ZM14.8702 24.5549C14.8702 24.7178 14.5326 25.2385 14.2603 25.4955C13.7233 26.0024 13.2568 26.1852 12.5 26.1852C11.7432 26.1852 11.2767 26.0024 10.7397 25.4955C10.4674 25.2385 10.1298 24.7178 10.1298 24.5549C10.1298 24.5218 11.1964 24.4947 12.5 24.4947C13.8036 24.4947 14.8702 24.5218 14.8702 24.5549Z" fill="#9BBFF1"/>
</svg>
