<svg width="23" height="23" viewBox="0 0 23 23" fill="none" xmlns="http://www.w3.org/2000/svg">
<path fill-rule="evenodd" clip-rule="evenodd" d="M0.296364 0.287303L0.00932963 0.574607L0.00402683 5.42299C-0.0103101 18.552 0.00422328 19.6124 0.206807 20.2018C0.620124 21.4044 1.61104 22.3912 2.82497 22.8093C3.35829 22.9929 3.73213 23 12.8962 23H22.4137L22.7007 22.7127C23.1956 22.2174 23.0573 21.367 22.4296 21.0457C22.2762 20.9672 19.6192 20.9357 13.1008 20.9353C7.29791 20.935 3.85733 20.8989 3.63108 20.836C3.08667 20.6847 2.63673 20.3343 2.36609 19.8509L2.1206 19.4124L2.09212 15.2299L2.06364 11.0475L5.26118 9.04991C7.01981 7.95122 8.6234 6.99347 8.8248 6.92153C9.55756 6.65968 9.92727 6.76554 11.4561 7.67502C12.862 8.51138 13.1117 8.62107 13.8936 8.74609C14.5906 8.85756 15.4819 8.7457 16.1334 8.46488C16.678 8.23007 22.7533 3.89162 22.8866 3.64216C23.1522 3.1454 22.9295 2.42984 22.4296 2.17389C21.8965 1.90104 21.7378 1.98577 18.65 4.19229C17.0121 5.36274 15.4952 6.40118 15.2792 6.49996C14.807 6.7157 14.2613 6.733 13.8149 6.54625C13.6341 6.47067 12.9616 6.09903 12.3205 5.72032C10.9977 4.9391 10.3645 4.71795 9.44954 4.71795C8.31211 4.71795 7.90537 4.90234 4.91149 6.77497L2.1206 8.52062L2.0715 4.57975C2.02024 0.468355 2.00472 0.325538 1.58473 0.100551C1.48152 0.0452137 1.21393 0 0.990234 0C0.671482 0 0.521238 0.062218 0.296364 0.287303ZM19.3323 8.50794C19.1851 8.58785 19.0195 8.73803 18.9641 8.84153C18.8995 8.96243 18.8634 10.6662 18.8634 13.5993V18.1687L19.1148 18.4677C19.4302 18.8429 19.9048 18.9478 20.3185 18.7336C20.9476 18.408 20.9256 18.5947 20.9256 13.5815V9.02308L20.5917 8.68889C20.2176 8.3144 19.7994 8.25425 19.3323 8.50794ZM9.72341 9.7232L9.43638 10.0105V14.0896V18.1687L9.68777 18.4677C10.134 18.9985 10.9346 18.946 11.3453 18.359C11.5715 18.0357 11.576 10.3624 11.3503 9.92539C11.161 9.55925 10.9261 9.4359 10.4173 9.4359C10.0985 9.4359 9.94829 9.49812 9.72341 9.7232ZM5.19175 11.6532C5.04455 11.7331 4.87889 11.8833 4.82351 11.9868C4.76105 12.1036 4.72286 13.313 4.72286 15.1719V18.1687L4.97424 18.4677C5.28966 18.8429 5.76425 18.9478 6.17796 18.7336C6.78777 18.418 6.78502 18.4342 6.78502 15.1542V12.1684L6.45115 11.8342C6.07701 11.4597 5.65878 11.3995 5.19175 11.6532ZM14.6188 11.6532C14.4716 11.7331 14.3059 11.8833 14.2506 11.9868C14.1881 12.1036 14.1499 13.313 14.1499 15.1719V18.1687L14.4013 18.4677C14.7167 18.8429 15.1913 18.9478 15.605 18.7336C16.2148 18.418 16.2121 18.4342 16.2121 15.1542V12.1684L15.8782 11.8342C15.5041 11.4597 15.0858 11.3995 14.6188 11.6532Z" fill="#9BBFF1"/>
</svg>
