<svg width="28" height="28" viewBox="0 0 28 28" fill="none" xmlns="http://www.w3.org/2000/svg">
<path fill-rule="evenodd" clip-rule="evenodd" d="M11.8775 0.246158C11.0195 0.736875 10.8356 1.25002 10.8291 3.17055L10.825 4.42851L10.1851 4.67464C9.83325 4.80995 9.50064 4.92076 9.44606 4.92076C9.39137 4.92076 8.92948 4.49863 8.41947 3.98287C7.37942 2.93088 6.8857 2.62361 6.23525 2.62361C5.52453 2.62361 5.15627 2.85737 3.97042 4.06152C2.82538 5.22421 2.625 5.53946 2.625 6.17873C2.625 6.81712 2.82538 7.13358 3.94155 8.25755L5.0283 9.35176L4.71866 10.1171L4.40891 10.8824L2.83336 10.9371C1.18562 10.9943 1.01598 11.0398 0.526531 11.5567C0.0741561 12.0343 0 12.3681 0 13.9258C0 15.561 0.0868437 15.9823 0.517344 16.4354C1.05602 17.0023 1.28527 17.0629 2.89187 17.0629H4.37281L4.7052 17.7961L5.03759 18.5293L3.99973 19.5737C2.12144 21.4638 2.14342 22.1542 4.14389 24.0957C5.18503 25.106 5.62877 25.3738 6.26522 25.3757C6.73597 25.3773 7.34541 24.9679 8.33066 23.9885L9.38798 22.9375L10.108 23.2435L10.8281 23.5496L10.8308 24.8185C10.8347 26.7489 11.0177 27.2621 11.8775 27.7538C12.2661 27.976 12.4506 27.9983 13.9215 28C15.6936 28.0019 16.0355 27.9216 16.536 27.3862C16.9886 26.9021 17.0624 26.5701 17.0638 25.0138L17.0652 23.5715L17.8414 23.2572L18.6175 22.9429L19.672 23.9912C21.5102 25.8184 22.0666 25.8323 23.8561 24.0957C25.8566 22.1542 25.8786 21.4638 24.0003 19.5737L22.9624 18.5293L23.2948 17.7961L23.6272 17.0629H25.1081C26.7147 17.0629 26.944 17.0023 27.4827 16.4354C27.9097 15.9859 28 15.5609 28 14C28 12.4391 27.9097 12.0138 27.4827 11.5649C26.982 11.0386 26.819 10.9944 25.1666 10.9371L23.5911 10.8824L23.2813 10.1171L22.9717 9.35176L24.0585 8.25755C25.1789 7.12931 25.375 6.81799 25.375 6.16812C25.375 5.52776 25.1136 5.12805 23.9373 3.96919C22.7489 2.79863 22.4651 2.62361 21.7541 2.62361C21.1096 2.62361 20.6155 2.93613 19.5377 4.02553L18.5676 5.00609L18.0064 4.75821C17.6979 4.62191 17.3592 4.48124 17.2539 4.44558C17.0848 4.38826 17.0625 4.21554 17.0625 2.96227C17.0625 1.43029 16.9878 1.09709 16.536 0.613813C16.0355 0.0783566 15.6936 -0.00193426 13.9215 3.47331e-05C12.4506 0.00167556 12.2661 0.0239906 11.8775 0.246158ZM15.3125 3.38932C15.3685 5.01363 15.4219 5.22716 15.8778 5.65345C16.1932 5.94847 18.1601 6.78036 18.542 6.78036C19.1002 6.78036 19.6558 6.42059 20.699 5.38348L21.7653 4.32361L22.6931 5.24674L23.621 6.16987L22.5853 7.22404C21.0502 8.78677 20.9499 9.17499 21.6555 10.8261C22.375 12.5096 22.5374 12.61 24.6641 12.6868L26.1953 12.742V14V15.258L24.6094 15.3153C22.9526 15.375 22.7717 15.4234 22.296 15.9322C21.9286 16.3253 21.2188 18.0395 21.2188 18.5338C21.2188 19.1717 21.4116 19.4748 22.5595 20.6414L23.6705 21.7706L22.8027 22.6438C22.3254 23.1239 21.8832 23.5168 21.8201 23.5168C21.7571 23.5168 21.3375 23.1418 20.8879 22.6836C19.3218 21.0876 18.7852 20.9285 17.2094 21.5932C16.0524 22.0812 15.8928 22.1855 15.607 22.6417C15.3974 22.9764 15.3603 23.224 15.3125 24.6107L15.2578 26.1968L13.9727 26.2277L12.6875 26.2584L12.6868 24.915C12.6859 22.7105 12.4461 22.2792 10.855 21.6196C9.19253 20.9304 8.69312 21.0724 7.11211 22.6836C6.66247 23.1418 6.24291 23.5168 6.17991 23.5168C6.1168 23.5168 5.67459 23.1239 5.19728 22.6438L4.3295 21.7706L5.44053 20.6414C6.58842 19.4748 6.78125 19.1717 6.78125 18.5338C6.78125 18.0395 6.07141 16.3253 5.70402 15.9322C5.22834 15.4234 5.04744 15.375 3.39062 15.3153L1.80469 15.258V14V12.742L3.33594 12.6868C5.46263 12.61 5.62505 12.5096 6.34452 10.8261C7.05009 9.17499 6.9498 8.78677 5.41472 7.22404L4.37905 6.16987L5.30687 5.24674L6.2347 4.32361L7.301 5.38348C8.36216 6.43842 8.90487 6.78441 9.48478 6.77588C9.65213 6.77336 10.2798 6.5629 10.8795 6.30814C11.8137 5.91138 12.0176 5.77738 12.3014 5.37374C12.6277 4.90971 12.6334 4.87788 12.6704 3.32205L12.7082 1.74172L13.9829 1.77245L15.2578 1.80319L15.3125 3.38932ZM12.5443 8.47599C11.5524 8.7487 10.7952 9.20288 10.0054 9.9989C8.54689 11.469 8.01423 13.3223 8.48094 15.3025C9.23169 18.488 12.7198 20.4215 15.8024 19.3608C18.5843 18.4035 20.2425 15.4111 19.5226 12.647C18.9882 10.595 17.2784 8.88369 15.3094 8.42983C14.6416 8.27592 13.1834 8.30032 12.5443 8.47599ZM15.0907 10.2353C17.1028 10.8329 18.2908 12.8828 17.7819 14.879C17.3172 16.7018 15.8491 17.8459 13.9747 17.8459C12.6383 17.8459 11.4925 17.2394 10.7721 16.1509C8.7628 13.1147 11.6179 9.20387 15.0907 10.2353Z" fill="#9BBFF1"/>
</svg>
