<svg width="16" height="16" viewBox="0 0 16 16" fill="none" xmlns="http://www.w3.org/2000/svg">
<path fill-rule="evenodd" clip-rule="evenodd" d="M0.124469 1.69516C0.522538 2.39931 0.617397 2.4101 6.46896 2.41549L11.9419 2.42046L6.3623 7.99561C1.11673 13.2371 0.782655 13.601 0.782655 14.0742C0.782655 14.7278 1.2588 15.1948 1.92538 15.1948C2.37337 15.1948 2.83074 14.7753 7.9961 9.62619L13.5823 4.05756L13.5823 9.49135C13.5823 15.4506 13.5962 15.5575 14.4183 15.8974C14.7589 16.0382 14.9183 16.0351 15.2386 15.8818C15.9979 15.5184 15.9956 15.5419 15.9979 7.9096L15.9998 1.43003C15.9999 1.05055 15.849 0.686634 15.5805 0.418573C15.312 0.150693 14.9477 0.00115234 14.5685 0.00319989L7.90452 0.0391756C0.86315 0.0773573 0.639867 0.0868664 0.368799 0.362367C-0.00893199 0.746307 -0.107631 1.28468 0.124469 1.69516Z" fill="#0F0E0E"/>
</svg>
