<svg width="6px" height="10px" viewBox="0 0 6 10" fill="none" xmlns="http://www.w3.org/2000/svg" transform="rotate(0) scale(1, 1)">
<path d="M5.45926 9.26059C5.53532 9.18519 5.59567 9.09563 5.63685 8.99704C5.67802 8.89845 5.69922 8.79276 5.69922 8.68602C5.69922 8.57928 5.67802 8.47359 5.63685 8.375C5.59567 8.27641 5.53532 8.18685 5.45926 8.11145L2.27559 4.94929L5.45926 1.78713C5.61268 1.63474 5.69887 1.42807 5.69887 1.21256C5.69887 0.997057 5.61268 0.790377 5.45926 0.637992C5.30584 0.485607 5.09775 0.4 4.88078 0.4C4.66381 0.4 4.45573 0.485607 4.30231 0.637992L0.536054 4.3788C0.459988 4.45419 0.399639 4.54375 0.358464 4.64234C0.317288 4.74094 0.296094 4.84663 0.296094 4.95336C0.296094 5.0601 0.317288 5.16579 0.358464 5.26438C0.399639 5.36298 0.459988 5.45253 0.536054 5.52793L4.30231 9.26874C4.61411 9.57843 5.13925 9.57843 5.45926 9.26059Z" fill="#0666eb"/>
</svg>