<svg width="6px" height="10px" viewBox="0 0 6 10" fill="none" xmlns="http://www.w3.org/2000/svg" transform="rotate(0) scale(1, 1)">
<path d="M0.540742 0.739413C0.464675 0.814811 0.404327 0.904369 0.363151 1.00296C0.321976 1.10155 0.300781 1.20724 0.300781 1.31398C0.300781 1.42072 0.321976 1.52641 0.363151 1.625C0.404327 1.72359 0.464675 1.81315 0.540741 1.88855L3.72441 5.05071L0.54074 8.21287C0.387319 8.36526 0.301127 8.57193 0.301127 8.78744C0.301127 9.00294 0.387319 9.20962 0.54074 9.36201C0.694162 9.51439 0.902246 9.6 1.11922 9.6C1.33619 9.6 1.54427 9.51439 1.69769 9.36201L5.46395 5.6212C5.54001 5.54581 5.60036 5.45625 5.64154 5.35766C5.68271 5.25906 5.70391 5.15337 5.70391 5.04664C5.70391 4.9399 5.68271 4.83421 5.64154 4.73562C5.60036 4.63702 5.54001 4.54747 5.46395 4.47207L1.69769 0.731263C1.38589 0.421567 0.86075 0.421567 0.540742 0.739413Z" fill="#0666eb"/>
</svg>