
<svg width="1158" height="1875" viewBox="0 0 1158 1875" fill="none" xmlns="http://www.w3.org/2000/svg">
  <g clip-path="url(#clip0)">
    <rect width="1158" height="1875" fill="url(#paint0_radial)"/>
    <circle cx="1179.5" cy="983.5" r="983.5" fill="url(#paint1_linear)" fill-opacity="0.18"/>
    <g transform="translate(0,438)">
    <path d="M390.172 499.602C390.172 500.497 389.99 501.343 389.625 502.139C389.293 502.902 388.829 503.582 388.232 504.179C387.668 504.742 386.988 505.19 386.192 505.522C385.429 505.853 384.617 506.019 383.755 506.019C382.859 506.019 382.013 505.853 381.217 505.522C380.455 505.19 379.775 504.742 379.178 504.179C378.614 503.582 378.166 502.902 377.834 502.139C377.503 501.343 377.337 500.497 377.337 499.602C377.337 498.739 377.503 497.927 377.834 497.164C378.166 496.368 378.614 495.688 379.178 495.124C379.775 494.527 380.455 494.063 381.217 493.731C382.013 493.366 382.859 493.184 383.755 493.184C384.617 493.184 385.429 493.366 386.192 493.731C386.988 494.063 387.668 494.527 388.232 495.124C388.829 495.688 389.293 496.368 389.625 497.164C389.99 497.927 390.172 498.739 390.172 499.602Z" fill="#45464C"/>
<path d="M928.819 391.335C928.819 395.73 928.249 399.697 927.107 403.235C926.023 406.717 924.568 409.799 922.742 412.482C920.917 415.164 918.777 417.447 916.323 419.331C913.87 421.214 911.331 422.755 908.706 423.954C906.081 425.152 903.4 426.037 900.661 426.608C897.979 427.179 895.44 427.464 893.043 427.464H807.199V405.204H893.043C897.323 405.204 900.632 403.949 902.972 401.437C905.368 398.926 906.566 395.559 906.566 391.335C906.566 389.28 906.253 387.397 905.625 385.684C904.997 383.972 904.084 382.488 902.886 381.232C901.745 379.977 900.318 379.007 898.607 378.322C896.952 377.637 895.098 377.294 893.043 377.294H841.862C838.267 377.294 834.387 376.666 830.222 375.411C826.057 374.098 822.177 372.015 818.582 369.161C815.045 366.307 812.077 362.569 809.681 357.946C807.342 353.322 806.172 347.672 806.172 340.994C806.172 334.316 807.342 328.694 809.681 324.128C812.077 319.505 815.045 315.766 818.582 312.913C822.177 310.002 826.057 307.918 830.222 306.663C834.387 305.35 838.267 304.694 841.862 304.694H917.607V326.953H841.862C837.64 326.953 834.33 328.237 831.934 330.806C829.594 333.374 828.425 336.77 828.425 340.994C828.425 345.275 829.594 348.671 831.934 351.182C834.33 353.636 837.64 354.863 841.862 354.863H893.043H893.215C895.611 354.92 898.15 355.263 900.832 355.891C903.514 356.462 906.167 357.375 908.792 358.63C911.473 359.886 914.012 361.484 916.409 363.425C918.805 365.308 920.917 367.591 922.742 370.274C924.625 372.956 926.109 376.039 927.193 379.52C928.277 383.002 928.819 386.94 928.819 391.335Z" fill="#45464C"/>
<path d="M796.93 427.464H765.348L715.279 377.294H699.617V354.863H715.279L765.348 304.694H796.93L733.852 366.079L796.93 427.464ZM690.716 427.464H668.463V304.694H690.716V427.464Z" fill="#45464C"/>
<path d="M642.362 417.961C642.362 419.559 642.048 421.043 641.421 422.413C640.85 423.783 640.051 424.981 639.024 426.009C638.054 426.979 636.884 427.749 635.515 428.32C634.146 428.891 632.691 429.176 631.15 429.176C629.781 429.176 628.383 428.919 626.956 428.406C625.587 427.892 624.36 427.064 623.276 425.923L541.968 340.994V427.464H519.715V314.197C519.715 311.914 520.342 309.859 521.598 308.033C522.91 306.149 524.565 304.751 526.562 303.838C528.673 302.981 530.841 302.782 533.067 303.238C535.292 303.638 537.203 304.665 538.801 306.32L620.109 391.164V304.694H642.362V417.961Z" fill="#45464C"/>
<path d="M493.776 427.464H471.523V397.328H393.296V427.464H371.043V366.079C371.043 357.118 372.584 348.87 375.665 341.336C378.746 333.802 383.025 327.324 388.503 321.902C393.98 316.48 400.457 312.256 407.931 309.231C415.406 306.206 423.565 304.694 432.409 304.694H482.564C484.104 304.694 485.559 304.979 486.929 305.55C488.298 306.121 489.496 306.92 490.524 307.947C491.551 308.974 492.349 310.173 492.92 311.543C493.491 312.913 493.776 314.368 493.776 315.909V427.464ZM393.296 375.068H471.523V326.953H432.409C431.725 326.953 430.27 327.067 428.044 327.296C425.876 327.467 423.337 327.952 420.427 328.751C417.574 329.55 414.55 330.777 411.355 332.433C408.16 334.088 405.221 336.371 402.539 339.282C399.858 342.193 397.632 345.845 395.863 350.24C394.152 354.578 393.296 359.858 393.296 366.079V375.068Z" fill="#45464C"/>
<path d="M351.018 345.96C351.018 351.04 350.391 355.577 349.135 359.573C347.88 363.568 346.168 367.107 344 370.189C341.889 373.214 339.436 375.811 336.64 377.98C333.844 380.149 330.905 381.946 327.824 383.373C324.8 384.743 321.719 385.742 318.581 386.37C315.499 386.998 312.589 387.312 309.851 387.312L356.325 427.465H321.919L275.53 387.312H259.525V365.052H309.851C312.647 364.824 315.186 364.253 317.468 363.34C319.807 362.369 321.804 361.085 323.459 359.487C325.171 357.889 326.483 355.977 327.396 353.751C328.309 351.468 328.766 348.871 328.766 345.96V331.919C328.766 330.664 328.594 329.722 328.252 329.094C327.967 328.409 327.567 327.924 327.054 327.639C326.597 327.296 326.084 327.096 325.513 327.039C325 326.982 324.515 326.954 324.058 326.954H250.624V427.465H228.371V315.91C228.371 314.369 228.656 312.913 229.227 311.543C229.798 310.173 230.568 308.975 231.538 307.948C232.565 306.92 233.763 306.121 235.133 305.55C236.502 304.98 237.985 304.694 239.583 304.694H324.058C329.022 304.694 333.216 305.607 336.64 307.434C340.063 309.203 342.83 311.458 344.942 314.197C347.11 316.88 348.65 319.791 349.563 322.93C350.533 326.069 351.018 329.009 351.018 331.748V345.96Z" fill="#45464C"/>
<path d="M751.001 477.389H735.876V504.74H727.115V477.389H715.854V468.728H727.115V456.968H735.876V468.728H751.001V477.389Z" fill="#45464C"/>
<path d="M711.057 492.58C711.057 494.068 710.869 495.412 710.491 496.611C710.114 497.788 709.614 498.832 708.992 499.743C708.37 500.631 707.648 501.397 706.827 502.041C706.005 502.663 705.139 503.174 704.228 503.574C703.34 503.974 702.429 504.273 701.496 504.473C700.586 504.651 699.72 504.74 698.898 504.74H683.274C682.074 504.74 680.764 504.529 679.343 504.107C677.921 503.685 676.6 502.996 675.378 502.041C674.179 501.064 673.168 499.809 672.347 498.277C671.547 496.722 671.147 494.823 671.147 492.58V480.854C671.147 478.633 671.547 476.756 672.347 475.224C673.168 473.669 674.179 472.414 675.378 471.459C676.6 470.482 677.921 469.783 679.343 469.361C680.764 468.939 682.074 468.728 683.274 468.728H698.898C701.119 468.728 703.007 469.127 704.561 469.927C706.116 470.726 707.371 471.737 708.326 472.958C709.281 474.158 709.969 475.468 710.391 476.889C710.835 478.311 711.057 479.632 711.057 480.854V492.58ZM702.396 480.92C702.396 479.721 702.096 478.833 701.496 478.255C700.897 477.678 700.031 477.389 698.898 477.389H683.34C682.185 477.389 681.308 477.689 680.709 478.289C680.109 478.866 679.809 479.721 679.809 480.854V492.58C679.809 493.713 680.109 494.579 680.709 495.179C681.308 495.778 682.185 496.078 683.34 496.078H698.898C700.075 496.078 700.952 495.778 701.53 495.179C702.107 494.579 702.396 493.713 702.396 492.58V480.92Z" fill="#45464C"/>
<path d="M666.316 504.74H662.452C661.208 504.74 659.875 504.529 658.454 504.107C657.055 503.685 655.744 502.997 654.523 502.042C653.301 501.064 652.291 499.809 651.491 498.277C650.692 496.722 650.292 494.824 650.292 492.58V453.503H658.954V492.58C658.954 493.646 659.287 494.501 659.953 495.146C660.619 495.767 661.452 496.078 662.452 496.078H666.316V504.74Z" fill="#45464C"/>
<path d="M642.162 461.332H633.5V453.503H642.162V461.332ZM642.162 504.74H633.5V468.728H642.162V504.74Z" fill="#45464C"/>
<path d="M625.97 492.58C625.97 494.068 625.781 495.412 625.403 496.611C625.026 497.788 624.526 498.832 623.904 499.743C623.282 500.631 622.56 501.397 621.739 502.041C620.917 502.663 620.051 503.174 619.14 503.574C618.252 503.974 617.352 504.273 616.442 504.473C615.531 504.651 614.665 504.74 613.843 504.74H598.219V496.078H613.843C614.998 496.078 615.864 495.778 616.442 495.179C617.019 494.579 617.308 493.713 617.308 492.58V480.92C617.308 479.721 617.008 478.833 616.408 478.255C615.831 477.678 614.976 477.389 613.843 477.389H598.286C597.109 477.389 596.22 477.689 595.621 478.289C595.021 478.866 594.721 479.721 594.721 480.854V516H586.06V480.854C586.06 479.366 586.248 478.033 586.626 476.856C587.003 475.679 587.503 474.646 588.125 473.758C588.769 472.847 589.502 472.081 590.324 471.459C591.145 470.815 592.001 470.293 592.889 469.894C593.799 469.494 594.71 469.205 595.621 469.027C596.553 468.828 597.42 468.728 598.219 468.728H613.843C615.331 468.728 616.664 468.916 617.841 469.294C619.018 469.671 620.051 470.171 620.939 470.793C621.85 471.415 622.616 472.137 623.238 472.958C623.882 473.78 624.404 474.646 624.804 475.557C625.203 476.445 625.492 477.345 625.67 478.255C625.87 479.166 625.97 480.032 625.97 480.854V492.58Z" fill="#45464C"/>
<path d="M578.865 492.58C578.865 494.068 578.676 495.412 578.299 496.611C577.921 497.788 577.421 498.832 576.8 499.743C576.178 500.631 575.456 501.397 574.634 502.041C573.812 502.663 572.946 503.174 572.036 503.574C571.147 503.974 570.237 504.273 569.304 504.473C568.393 504.651 567.527 504.74 566.706 504.74H551.081C549.882 504.74 548.572 504.529 547.15 504.107C545.729 503.685 544.407 502.996 543.186 502.041C541.987 501.064 540.976 499.809 540.154 498.277C539.355 496.722 538.955 494.823 538.955 492.58V480.854C538.955 478.633 539.355 476.756 540.154 475.224C540.976 473.669 541.987 472.414 543.186 471.459C544.407 470.482 545.729 469.783 547.15 469.361C548.572 468.939 549.882 468.728 551.081 468.728H566.706C568.926 468.728 570.814 469.127 572.369 469.927C573.924 470.726 575.178 471.737 576.133 472.958C577.088 474.158 577.777 475.468 578.199 476.889C578.643 478.311 578.865 479.632 578.865 480.854V492.58ZM570.203 480.92C570.203 479.721 569.904 478.833 569.304 478.255C568.704 477.678 567.838 477.389 566.706 477.389H551.148C549.993 477.389 549.116 477.689 548.516 478.289C547.916 478.866 547.617 479.721 547.617 480.854V492.58C547.617 493.713 547.916 494.579 548.516 495.179C549.116 495.778 549.993 496.078 551.148 496.078H566.706C567.883 496.078 568.76 495.778 569.337 495.179C569.915 494.579 570.203 493.713 570.203 492.58V480.92Z" fill="#45464C"/>
<path d="M534.128 477.389H519.003V504.74H510.242V477.389H498.981V468.728H510.242V456.968H519.003V468.728H534.128V477.389Z" fill="#45464C"/>
<path d="M493.25 500.376C493.25 500.998 493.139 501.575 492.917 502.108C492.695 502.641 492.384 503.107 491.984 503.507C491.606 503.885 491.151 504.185 490.618 504.407C490.107 504.629 489.552 504.74 488.952 504.74H469.364C468.298 504.74 467.154 504.618 465.932 504.373C464.733 504.129 463.545 503.74 462.368 503.207C461.191 502.652 460.047 501.964 458.937 501.142C457.848 500.298 456.893 499.288 456.072 498.11C455.25 496.911 454.584 495.534 454.073 493.979C453.584 492.425 453.34 490.67 453.34 488.716V468.728H462.001V488.716C462.001 489.849 462.19 490.87 462.568 491.781C462.968 492.669 463.501 493.435 464.167 494.079C464.833 494.724 465.61 495.223 466.499 495.579C467.409 495.912 468.387 496.078 469.43 496.078H484.588V468.728H493.25V500.376Z" fill="#45464C"/>
<path d="M446.477 492.814C446.477 494.013 446.266 495.312 445.844 496.711C445.422 498.088 444.733 499.376 443.778 500.576C442.846 501.753 441.613 502.741 440.081 503.541C438.57 504.34 436.727 504.74 434.551 504.74H418.926C417.727 504.74 416.428 504.529 415.029 504.107C413.652 503.685 412.364 503.008 411.164 502.075C409.987 501.12 408.999 499.887 408.199 498.377C407.4 496.844 407 494.99 407 492.814C407 491.614 407.211 490.315 407.633 488.916C408.055 487.517 408.732 486.228 409.665 485.051C410.62 483.852 411.853 482.853 413.363 482.053C414.895 481.254 416.75 480.854 418.926 480.854H434.551V489.116H418.926C417.749 489.116 416.839 489.482 416.195 490.215C415.551 490.926 415.229 491.814 415.229 492.88C415.229 494.013 415.595 494.901 416.328 495.545C417.083 496.167 417.971 496.478 418.993 496.478H434.551C435.728 496.478 436.638 496.123 437.282 495.412C437.926 494.701 438.248 493.813 438.248 492.747V480.654C438.248 479.521 437.893 478.622 437.182 477.956C436.494 477.289 435.617 476.956 434.551 476.956H415.528V468.728H434.551C435.75 468.728 437.038 468.939 438.415 469.361C439.814 469.783 441.102 470.471 442.279 471.426C443.479 472.359 444.478 473.591 445.278 475.124C446.077 476.634 446.477 478.477 446.477 480.654V492.814Z" fill="#45464C"/></g>
     
  </g>
  <defs>
    <radialGradient id="paint0_radial" cx="0" cy="0" r="1" gradientUnits="userSpaceOnUse" gradientTransform="translate(579 938) rotate(58.5) scale(850 950)">
      <stop stop-color="white"/>
      <stop offset="1" stop-color="#BDCCFF"/>
    </radialGradient>
    <linearGradient id="paint1_linear" x1="1179.5" y1="0" x2="1179.5" y2="1875" gradientUnits="userSpaceOnUse">
      <stop stop-color="white"/>
      <stop offset="1" stop-color="#BDCCFF"/>
    </linearGradient>
    <clipPath id="clip0">
      <rect width="1158" height="1875" fill="white"/>
    </clipPath>
  </defs>
</svg>

