<svg width="194" height="194" viewBox="0 0 194 194" fill="none" xmlns="http://www.w3.org/2000/svg">
<path d="M160.656 0V151.108L117.764 194H33.3438V0H160.656Z" fill="#F1F1F1"/>
<path d="M156.109 155.655V4.54688H37.8906V189.453H122.311L156.109 155.655Z" fill="white"/>
<path d="M117.764 194V151.108H160.656L117.764 194Z" fill="#F1F1F1"/>
<path d="M137.922 21.2188H56.0781V33.3438H137.922V21.2188Z" fill="#F1F1F1"/>
<path d="M68.2031 54.5625H56.0781V66.6875H68.2031V54.5625Z" fill="#F1F1F1"/>
<path d="M137.922 56.0781H80.3281V65.1719H137.922V56.0781Z" fill="#F1F1F1"/>
<path d="M68.2031 78.8125H56.0781V90.9375H68.2031V78.8125Z" fill="#F1F1F1"/>
<path d="M137.922 80.3281H80.3281V89.4219H137.922V80.3281Z" fill="#F1F1F1"/>
<path d="M68.2031 103.062H56.0781V115.188H68.2031V103.062Z" fill="#F1F1F1"/>
<path d="M137.922 104.578H80.3281V113.672H137.922V104.578Z" fill="#F1F1F1"/>
<circle cx="72" cy="151" r="16" fill="#045FDD" fill-opacity="0.11"/>
<circle cx="72" cy="151" r="8" fill="white"/>
<path d="M107.089 149.373C109.337 144.998 111.588 140.558 112.449 135.689C112.795 133.735 113.228 130.089 111.433 128.515C107.703 125.244 103.763 138.553 103.34 140.41C103.163 141.183 102.461 143.764 103.813 144.107C104.312 144.234 105.694 143.775 105.932 144.397C106.558 146.029 104.948 148.518 104.338 149.97C103.611 151.703 104.841 150.878 105.775 150.174C108.242 148.313 110.565 146.171 112.73 143.988C113.02 143.695 116.377 139.568 115.165 142.335C114.435 144.001 112.752 145.709 112.309 147.43C111.893 149.05 114.409 144.782 115.305 143.358C116.817 140.953 117.924 137.92 120.876 137.07C122.539 136.59 123.936 135.462 125.518 134.786C127.609 133.892 129.763 133.427 132 133.116" stroke="#E4EEFD" stroke-width="3" stroke-linecap="round"/>
</svg>
