<svg width="33" height="33" viewBox="0 0 33 33" fill="none" xmlns="http://www.w3.org/2000/svg">
<circle cx="16.5" cy="16.5" r="16" stroke="#0666EB"/>
<path d="M16.4821 19.7885L12.2128 15.5192L13.2668 14.4348L15.7321 16.9V8.5H17.2321V16.9L19.6973 14.4348L20.7513 15.5192L16.4821 19.7885ZM10.7898 23.5C10.2846 23.5 9.85706 23.325 9.50706 22.975C9.15706 22.625 8.98206 22.1974 8.98206 21.6923V18.9808H10.4821V21.6923C10.4821 21.7692 10.5141 21.8398 10.5783 21.9038C10.6423 21.9679 10.7128 22 10.7898 22H22.1743C22.2513 22 22.3218 21.9679 22.3858 21.9038C22.45 21.8398 22.4821 21.7692 22.4821 21.6923V18.9808H23.9821V21.6923C23.9821 22.1974 23.8071 22.625 23.4571 22.975C23.1071 23.325 22.6795 23.5 22.1743 23.5H10.7898Z" fill="#0666EB"/>
</svg>
