<svg width="36" height="36" viewBox="0 0 36 36" fill="none" xmlns="http://www.w3.org/2000/svg">
<path fill-rule="evenodd" clip-rule="evenodd" d="M16.3857 0.0445712C14.8845 0.199876 13.0995 0.601091 11.8388 1.06651C10.8207 1.44238 9.14487 2.28346 8.26973 2.85772C5.46451 4.6985 3.28002 7.15816 1.85884 10.0762C1.23086 11.3656 0.906112 12.233 0.597539 13.4454C-0.19918 16.5751 -0.19918 19.4175 0.597539 22.5473C0.908714 23.7698 1.23346 24.636 1.86116 25.9182C4.37026 31.0434 9.14164 34.6637 14.7621 35.7071C17.839 36.2782 21.1682 36.0081 24.0877 34.9503C25.917 34.2875 28.0626 33.0523 29.5389 31.8119C32.4123 29.3978 34.5658 25.9742 35.4393 22.4316C35.9232 20.4692 36.088 18.6912 35.9565 16.8523C35.7753 14.3191 35.2399 12.3148 34.1463 10.0762C32.3967 6.49457 29.4827 3.57729 25.9165 1.83726C24.1362 0.968654 22.5387 0.465851 20.6411 0.176784C19.5956 0.0176077 17.3278 -0.0528637 16.3857 0.0445712Z" fill="#EA3C4E"/>
<path d="M20.3636 9L19.9716 21.1108H16.4688L16.0767 9H20.3636ZM18.2159 26.7017C17.608 26.7017 17.0852 26.4858 16.6477 26.054C16.2159 25.6222 16 25.0994 16 24.4858C16 23.8835 16.2159 23.3693 16.6477 22.9432C17.0852 22.5114 17.608 22.2955 18.2159 22.2955C18.8011 22.2955 19.3153 22.5114 19.7585 22.9432C20.2074 23.3693 20.4318 23.8835 20.4318 24.4858C20.4318 24.8949 20.3267 25.267 20.1165 25.6023C19.9119 25.9375 19.642 26.2045 19.3068 26.4034C18.9773 26.6023 18.6136 26.7017 18.2159 26.7017Z" fill="white"/>
</svg>
