<svg width="16" height="16" viewBox="0 0 16 16" fill="none" xmlns="http://www.w3.org/2000/svg">
<path d="M8.00016 14.6667C11.6821 14.6667 14.6668 11.6819 14.6668 8.00001C14.6668 4.31811 11.6821 1.33334 8.00016 1.33334C4.31826 1.33334 1.3335 4.31811 1.3335 8.00001C1.3335 11.6819 4.31826 14.6667 8.00016 14.6667Z" fill="#FF3C53"/>
<path fill-rule="evenodd" clip-rule="evenodd" d="M10.4716 5.52861C10.7319 5.78896 10.7319 6.21107 10.4716 6.47141L6.47157 10.4714C6.21122 10.7318 5.78911 10.7318 5.52876 10.4714C5.26841 10.2111 5.26841 9.78896 5.52876 9.52861L9.52876 5.52861C9.78911 5.26826 10.2112 5.26826 10.4716 5.52861Z" fill="white"/>
<path fill-rule="evenodd" clip-rule="evenodd" d="M5.52876 5.52861C5.78911 5.26826 6.21122 5.26826 6.47157 5.52861L10.4716 9.52861C10.7319 9.78896 10.7319 10.2111 10.4716 10.4714C10.2112 10.7318 9.78911 10.7318 9.52876 10.4714L5.52876 6.47141C5.26841 6.21107 5.26841 5.78896 5.52876 5.52861Z" fill="white"/>
</svg>
