<svg width="28" height="28" viewBox="0 0 28 28" fill="none" xmlns="http://www.w3.org/2000/svg">
<path fill-rule="evenodd" clip-rule="evenodd" d="M12.416 1.11399C9.38712 1.47393 6.15894 3.1252 4.25945 5.28649C3.27111 6.41103 2.25511 8.08967 1.79633 9.35625C1.13877 11.1715 0.993434 12.0258 1.00022 14.0383C1.00752 16.2212 1.3163 17.604 2.22355 19.5173L2.7936 20.7193L2.35569 23.1822C2.1148 24.5366 1.91778 25.8052 1.91778 26.0013C1.91778 26.5227 2.42145 26.9741 3.00344 26.9741C3.29412 26.9741 4.23154 26.6601 5.47461 26.1466L7.47732 25.3191L8.44039 25.7588C10.4572 26.6797 11.9575 27.0079 14.1133 26.9999C17.9724 26.9855 21.4636 25.3498 23.9599 22.3868C25.2998 20.7962 26.16 19.06 26.7112 16.833C27.1222 15.1729 27.091 12.5524 26.6399 10.8357C25.2504 5.54835 20.9135 1.78691 15.4335 1.11613C14.1733 0.961775 13.6996 0.961524 12.416 1.11399ZM16.0988 3.18536C20.478 4.08509 23.8092 7.3566 24.7655 11.6968C25.062 13.0427 25.0233 15.469 24.6851 16.7385C23.7591 20.2138 21.3528 22.9674 18.1181 24.2533C16.6143 24.8511 15.6947 25.016 13.9247 25.0054C11.8805 24.993 10.815 24.7326 8.88396 23.7736C8.11689 23.3925 7.42062 23.0808 7.33663 23.0808C7.25277 23.0808 6.50834 23.3601 5.68244 23.7016C4.85653 24.0429 4.18087 24.2812 4.18087 24.231C4.18087 24.1807 4.32219 23.2797 4.49481 22.2289L4.80876 20.3181L4.25417 19.219C2.9793 16.6926 2.62839 14.2825 3.1616 11.7148C3.62239 9.49591 4.61916 7.67635 6.25751 6.06327C7.72098 4.62249 9.59708 3.60207 11.5359 3.19264C12.723 2.94196 14.8971 2.93845 16.0988 3.18536ZM12.7801 8.05488C11.1905 8.57508 9.96433 10.2074 9.96433 11.8033C9.96433 12.7792 11.002 13.2644 11.6673 12.5996C11.8499 12.4174 11.976 12.1459 11.976 11.9355C11.976 11.2846 12.4872 10.4864 13.1027 10.1764C13.4113 10.021 13.8094 9.89378 13.9876 9.89378C14.1658 9.89378 14.5639 10.021 14.8725 10.1764C15.2955 10.3895 15.5064 10.6059 15.7302 11.0565C16.1949 11.9924 16.0704 12.3246 14.7273 13.733C13.5258 14.9928 13.1426 15.6519 13.0224 16.6653C12.9575 17.2131 12.9858 17.3191 13.2741 17.6071C13.9437 18.276 14.8715 17.8648 15.0378 16.8254C15.1092 16.3794 15.303 16.1064 16.2601 15.1027C17.6551 13.64 17.9419 13.0741 17.9454 11.7776C17.9475 11.0286 17.885 10.7077 17.6402 10.211C17.2432 9.40511 16.3944 8.56177 15.6467 8.23071C14.9143 7.90631 13.4994 7.81953 12.7801 8.05488ZM13.2904 19.2446C13.0958 19.4389 12.9818 19.6964 12.9818 19.941C12.9818 20.1857 13.0958 20.4431 13.2904 20.6374C13.4849 20.8318 13.7427 20.9458 13.9876 20.9458C14.2325 20.9458 14.4903 20.8318 14.6848 20.6374C14.8794 20.4431 14.9934 20.1857 14.9934 19.941C14.9934 19.6964 14.8794 19.4389 14.6848 19.2446C14.4903 19.0502 14.2325 18.9363 13.9876 18.9363C13.7427 18.9363 13.4849 19.0502 13.2904 19.2446Z" fill="#9BBFF1"/>
</svg>
