<svg width="24" height="24" viewBox="0 0 24 24" fill="none" xmlns="http://www.w3.org/2000/svg">
<path fill-rule="evenodd" clip-rule="evenodd" d="M10.9034 3.07892C8.80647 3.32811 6.57157 4.47129 5.25654 5.96757C4.57231 6.7461 3.86892 7.90823 3.5513 8.7851C3.09607 10.0418 2.99545 10.6333 3.00015 12.0265C3.0052 13.5377 3.21898 14.4951 3.84707 15.8197L4.24172 16.6518L3.93855 18.3569C3.77178 19.2946 3.63539 20.1729 3.63539 20.3086C3.63539 20.6696 3.98408 20.9821 4.38699 20.9821C4.58824 20.9821 5.23722 20.7647 6.09781 20.4092L7.4843 19.8363L8.15104 20.1407C9.54728 20.7783 10.586 21.0055 12.0785 20.9999C14.7501 20.99 17.1671 19.8576 18.8953 17.8062C19.8229 16.705 20.4185 15.5031 20.8001 13.9613C21.0846 12.812 21.063 10.9978 20.7507 9.80934C19.7887 6.14885 16.7863 3.54478 12.9924 3.08039C12.12 2.97354 11.792 2.97336 10.9034 3.07892ZM13.453 4.51294C16.4848 5.13583 18.791 7.40072 19.453 10.4054C19.6583 11.3373 19.6315 13.017 19.3974 13.8959C18.7563 16.3019 17.0904 18.2082 14.851 19.0984C13.8099 19.5123 13.1733 19.6265 11.9479 19.6191C10.5327 19.6106 9.795 19.4302 8.45812 18.7663C7.92708 18.5025 7.44504 18.2867 7.3869 18.2867C7.32884 18.2867 6.81346 18.4801 6.24169 18.7165C5.66991 18.9528 5.20214 19.1178 5.20214 19.083C5.20214 19.0482 5.29998 18.4244 5.41949 17.6969L5.63683 16.374L5.25289 15.6132C4.37028 13.8641 4.12735 12.1956 4.49649 10.418C4.8155 8.88178 5.50557 7.62209 6.63982 6.50534C7.65298 5.50788 8.95183 4.80143 10.2941 4.51798C11.116 4.34444 12.6211 4.342 13.453 4.51294ZM11.1555 7.88415C10.055 8.24429 9.20607 9.37434 9.20607 10.4792C9.20607 11.1548 9.92443 11.4907 10.3851 11.0305C10.5114 10.9044 10.5987 10.7164 10.5987 10.5707C10.5987 10.1201 10.9527 9.56754 11.3788 9.35286C11.5924 9.24531 11.8681 9.15723 11.9914 9.15723C12.1148 9.15723 12.3904 9.24531 12.604 9.35286C12.8969 9.50041 13.0429 9.65022 13.1978 9.96219C13.5195 10.6101 13.4334 10.8401 12.5035 11.8151C11.6717 12.6873 11.4064 13.1436 11.3232 13.8452C11.2783 14.2244 11.2979 14.2978 11.4975 14.4972C11.961 14.9603 12.6033 14.6756 12.7185 13.956C12.7679 13.6473 12.9021 13.4583 13.5647 12.7634C14.5304 11.7508 14.729 11.359 14.7314 10.4614C14.7329 9.94289 14.6896 9.72074 14.5202 9.37686C14.2453 8.81892 13.6577 8.23507 13.14 8.00588C12.633 7.78129 11.6534 7.72121 11.1555 7.88415ZM11.5088 15.6309C11.374 15.7654 11.2951 15.9436 11.2951 16.113C11.2951 16.2824 11.374 16.4606 11.5088 16.5951C11.6434 16.7297 11.8219 16.8086 11.9914 16.8086C12.161 16.8086 12.3394 16.7297 12.4741 16.5951C12.6088 16.4606 12.6878 16.2824 12.6878 16.113C12.6878 15.9436 12.6088 15.7654 12.4741 15.6309C12.3394 15.4963 12.161 15.4174 11.9914 15.4174C11.8219 15.4174 11.6434 15.4963 11.5088 15.6309Z" fill="white"/>
</svg>
