<svg width="24" height="24" viewBox="0 0 24 24" fill="none" xmlns="http://www.w3.org/2000/svg">
<path d="M8.349 17.5896H15.675V16.1906H8.349V17.5896ZM8.349 13.6299H15.675V12.2309H8.349V13.6299ZM6.39225 21.2991C5.91958 21.2991 5.51733 21.1332 5.1855 20.8014C4.8535 20.4694 4.6875 20.0671 4.6875 19.5946V4.40762C4.6875 3.93512 4.8535 3.53287 5.1855 3.20087C5.51733 2.86904 5.92025 2.70312 6.39425 2.70312H14.2557L19.324 7.75887V19.5924C19.324 20.0664 19.158 20.4694 18.826 20.8014C18.4942 21.1332 18.0919 21.2991 17.6192 21.2991H6.39225ZM13.5662 8.46062V4.10212H6.39425C6.31725 4.10212 6.24675 4.13412 6.18275 4.19812C6.11858 4.26229 6.0865 4.33287 6.0865 4.40987V19.5924C6.0865 19.6694 6.11858 19.74 6.18275 19.8041C6.24675 19.8681 6.31725 19.9001 6.39425 19.9001H17.6173C17.6943 19.9001 17.7647 19.8681 17.8287 19.8041C17.8929 19.74 17.925 19.6694 17.925 19.5924V8.46062H13.5662Z" fill="white"/>
</svg>
