<svg width="32" height="32" viewBox="0 0 32 32" fill="none" xmlns="http://www.w3.org/2000/svg">
<path fill-rule="evenodd" clip-rule="evenodd" d="M32 0H0V32H32V0ZM23.7676 9.52398C23.7676 9.33826 23.6548 9.07358 23.517 8.93573C23.3791 8.79788 23.1677 8.68798 23.047 8.69149C22.803 8.69851 7.52065 14.5698 6.8883 14.8994C6.38464 15.1619 6.27486 15.4368 6.56272 15.7147C6.68603 15.8338 7.72517 16.2205 8.87209 16.574L10.9571 17.217L15.5766 14.3071C19.8853 11.5929 20.7599 11.1036 20.7599 11.4074C20.7599 11.4734 19.0823 13.0408 17.0317 14.8905C14.3388 17.3197 13.5218 17.9647 13.2455 18.7905C13.0877 19.2619 13.1061 19.7923 13.0523 20.747C12.9399 22.7412 12.9787 22.7556 14.487 21.2796C15.0856 20.6938 15.6195 20.2144 15.6734 20.2144C15.7271 20.2144 16.6822 20.8826 17.7957 21.6992C18.9091 22.5158 19.9192 23.2191 20.0405 23.2622C20.5064 23.4275 20.8661 23.1395 21.0622 22.4438C21.3636 21.3744 23.7676 9.8938 23.7676 9.52398Z" fill="white"/>
</svg>
