<svg width="32" height="32" viewBox="0 0 32 32" fill="none" xmlns="http://www.w3.org/2000/svg">
<path fill-rule="evenodd" clip-rule="evenodd" d="M32.0078 0H0.0078125V32H32.0078V0ZM29.0581 7.2413C29.0581 8.7639 27.8356 9.99822 26.3275 9.99822C24.8194 9.99822 23.5968 8.7639 23.5968 7.2413C23.5968 5.71869 24.8194 4.48438 26.3275 4.48438C27.8356 4.48438 29.0581 5.71869 29.0581 7.2413ZM11.683 15.6348H19.0041C19.4317 15.6348 19.7291 15.5803 19.8783 15.4499C20.0275 15.3196 20.12 15.0779 20.12 14.7058V13.6643C20.12 13.3111 20.0275 13.0694 19.8783 12.9391C19.7291 12.8087 19.4317 12.7341 19.0041 12.7341H11.683V15.6348ZM8.57812 9.99934H19.5064C20.1935 9.99934 20.7514 10.0729 21.198 10.2032C21.6446 10.3525 22.0165 10.5752 22.3506 10.8916C22.6669 11.2258 22.8896 11.5979 23.0199 12.0256C23.1502 12.4534 23.2248 13.0115 23.2248 13.7177V14.6479C23.2248 15.8387 23.0199 16.731 22.6112 17.2891C22.2025 17.8472 21.7069 18.1858 20.6033 18.3496L23.5968 22.4044H20.12L17.4049 18.3685H11.683V22.4044H8.57812V9.99934Z" fill="white"/>
</svg>
