<svg width="32" height="32" viewBox="0 0 32 32" fill="none" xmlns="http://www.w3.org/2000/svg">
<path fill-rule="evenodd" clip-rule="evenodd" d="M32.0078 0H0.0078125V32H32.0078V0ZM25.1871 15.5733H25.1825C17.3177 15.4873 16.5063 12.9737 16.4333 6.82229C16.4321 6.70367 16.4807 6.59008 16.5679 6.5096C16.655 6.42871 16.7732 6.39057 16.8906 6.39979C21.5194 6.82145 25.1838 10.4873 25.6046 15.116C25.6151 15.2342 25.5753 15.3511 25.4948 15.4383C25.4156 15.5242 25.3041 15.5733 25.1871 15.5733ZM16.4338 25.1743C16.5067 19.0228 17.3177 16.5092 25.1825 16.4233C25.3011 16.4279 25.4139 16.4711 25.4948 16.5583C25.5757 16.6454 25.6151 16.7624 25.6046 16.8806C25.1842 21.5097 21.5198 25.1751 16.891 25.5968C16.8784 25.598 16.8654 25.5984 16.8529 25.5984C16.7481 25.5984 16.6462 25.5586 16.5683 25.4869C16.4811 25.4065 16.4325 25.2929 16.4338 25.1743ZM6.40832 15.1168C6.82702 10.5007 10.4797 6.8357 15.0938 6.40188C15.212 6.39099 15.3298 6.43039 15.4178 6.51086C15.505 6.59134 15.554 6.70535 15.5528 6.82397C15.479 12.9712 14.6697 15.4836 6.83079 15.5737H6.82576C6.70925 15.5737 6.59734 15.5251 6.51813 15.4391C6.43724 15.3519 6.39784 15.235 6.40832 15.1168ZM6.51771 16.5574C6.59776 16.4702 6.70003 16.4082 6.83037 16.4229C14.6697 16.513 15.4786 19.0254 15.5523 25.1722C15.5536 25.2908 15.5046 25.4048 15.4174 25.4853C15.3394 25.5569 15.238 25.5963 15.1332 25.5963C15.1202 25.5963 15.1068 25.5959 15.0938 25.5947C10.4797 25.1608 6.8266 21.4958 6.4079 16.8797C6.39742 16.7615 6.43724 16.6446 6.51771 16.5574Z" fill="white"/>
</svg>
