<svg width="32" height="32" viewBox="0 0 32 32" fill="none" xmlns="http://www.w3.org/2000/svg">
<path fill-rule="evenodd" clip-rule="evenodd" d="M32.0078 0H0.0078125V32H32.0078V0ZM17.0705 22.9725L17.0812 22.9721C18.1509 22.9351 19.0641 22.9035 19.9757 22.8468C20.0477 22.8424 20.1199 22.8381 20.1921 22.8339C20.2155 22.8326 20.2389 22.8312 20.2623 22.8298L20.2636 22.8297C21.0911 22.7811 21.9263 22.732 22.727 22.5463C24.0296 22.2459 25.0074 21.5448 25.2529 20.0756C25.6788 17.5863 25.718 15.0462 25.3691 12.545C25.3614 12.4883 25.3539 12.4313 25.3464 12.3744C25.2568 11.6921 25.1665 11.0045 24.6477 10.4618C24.037 9.80529 23.2084 9.39274 22.3162 9.30107C18.9597 8.93549 15.5776 8.86444 12.2088 9.08874L12.085 9.09664L12.0849 9.09665C11.1546 9.15592 10.2174 9.21564 9.30318 9.38921C7.86241 9.65962 6.99875 10.565 6.76831 11.845C6.30555 14.4837 6.28626 17.1812 6.71119 19.8262C6.81139 20.4923 6.97571 21.1192 7.48769 21.6069C8.10688 22.1958 8.83928 22.5764 9.68192 22.6436C11.4248 22.7813 13.1706 22.8884 14.6348 22.9782C14.7289 22.984 14.8219 22.9897 14.9137 22.9953C15.1068 23.0072 15.2946 23.0188 15.4761 23.0301C16.051 23.0078 16.5775 22.9896 17.0705 22.9725ZM13.7236 19.6459V12.3067L19.7001 15.9723L13.7236 19.6459Z" fill="white"/>
</svg>
