<svg width="34" height="34" viewBox="0 0 34 34" fill="none" xmlns="http://www.w3.org/2000/svg">
<path fill-rule="evenodd" clip-rule="evenodd" d="M16.9979 32.6867C25.6634 32.6867 32.6865 25.6636 32.6865 17C32.6865 8.33567 25.6634 1.31325 16.9979 1.31325C8.33519 1.31325 1.31422 8.33567 1.31422 17C1.31422 25.6629 8.33519 32.6867 16.9979 32.6867ZM16.9979 0C26.3905 0 34 7.61175 34 17C34 26.3883 26.3891 34 16.9979 34C7.61159 34 0 26.3883 0 17C0 7.61175 7.61088 0 16.9979 0ZM16.9979 29.0417C16.4391 29.0417 16.1024 28.6684 16.0819 28.1577C15.9595 28.3879 15.8018 28.5437 15.5641 28.5912C15.3279 28.6353 15.0839 28.6072 14.8639 28.5104C14.6466 28.4234 14.4698 28.2581 14.368 28.0472C14.2619 27.8318 14.2973 27.6101 14.373 27.3516C14.1098 27.727 13.6656 27.8248 13.2745 27.6434C12.7383 27.3941 12.5431 26.9415 12.7631 26.4251C13.4251 24.8611 14.0837 23.3254 14.7486 21.7635C14.8087 21.6219 14.8596 21.4753 14.9261 21.3343C14.9855 21.2089 15.023 21.1168 15.0789 21.041C15.1212 20.9842 15.1743 20.9363 15.2352 20.9001C14.2067 21.0127 13.7123 21.4158 13.44 21.5943C13.3679 21.6424 13.3721 21.6495 13.0941 21.5631C12.9708 21.5273 12.8384 21.5415 12.7256 21.6028C12.5996 21.6695 12.479 21.746 12.3649 21.8315C11.9963 22.1177 11.62 22.394 11.2713 22.7028C11.1086 22.8473 10.8752 23.0931 10.907 23.3155C10.9325 23.5216 11.4383 23.999 11.5896 24.1414C11.9482 24.4786 11.4057 25.1133 10.6828 25.053C10.8752 24.8519 10.9205 24.6812 10.8957 24.5296C10.8243 24.5289 10.6864 24.5423 10.5562 24.4262C10.4006 24.2866 10.4699 23.8744 10.3256 23.7341C10.071 23.4876 9.23845 23.465 8.7412 23.4437C8.53183 23.4352 8.31326 23.3793 8.32883 23.0555C8.01265 23.0768 7.94687 23.3105 7.94687 23.5216C7.67454 23.3686 7.44183 22.6348 8.44624 22.4683C8.27648 22.3146 7.99497 22.2587 7.82167 22.4542C7.65828 22.185 8.07136 21.6559 8.81476 21.9541C8.81264 21.952 9.14933 21.5142 10.1544 22.6341C10.2811 22.5392 10.407 22.4457 10.5223 22.3394C10.9113 21.9874 11.8917 21.034 11.8917 21.034C11.8917 20.4978 11.9723 19.4593 12.6846 18.8367C12.988 18.5711 13.2787 18.4301 13.921 18.3147C13.921 18.3147 13.6105 17.8309 13.5617 17.6403C13.0015 18.1971 11.8761 18.3635 11.8761 17.4243C10.9587 18.3359 10.1063 17.8443 10.1063 17.272C10.0746 17.5621 10.0088 17.8473 9.91042 18.122C9.79512 18.4294 9.37497 19.6074 8.29063 19.6074C8.26587 20.0168 8.26375 21.3633 6.96792 21.6651C6.91204 21.6778 6.8406 21.697 6.80523 21.7395C6.28181 22.3869 4.10606 23.0669 3.8401 22.8834C4.00845 22.763 4.27511 22.6036 4.31755 21.8436C4.34443 21.3421 4.3996 18.7397 4.3996 15.074C4.3996 13.7764 4.54036 9.57313 8.72139 8.98733C9.35587 8.89879 9.97974 8.94483 10.5201 9.34363C11.2558 9.89046 11.6179 10.8099 11.185 11.8518C11.1709 11.8894 11.1603 11.9262 11.1405 11.9595C10.9933 12.2074 11.0535 12.4213 11.2452 12.6112C11.5939 12.9561 12.0006 13.1892 12.4901 13.2458C12.7985 13.2813 13.0545 13.146 13.2589 12.9349C13.7279 12.4546 14.0462 11.8901 14.1615 11.2271C14.3793 9.96767 14.0412 9.33583 14.0221 9.29617C13.6819 8.61758 12.9597 8.12033 12.1222 8.0495C11.7389 7.33692 10.6383 7.61883 10.6383 7.61883C10.3624 7.67833 10.2655 7.75625 10.1969 7.89154C10.1969 7.89154 9.71378 7.16054 10.1686 6.86729C10.6248 6.57333 11.6427 6.45221 11.6427 6.45221C11.6427 5.97621 12.4349 5.60575 13.8658 5.86004C15.5967 6.16746 15.9687 5.49454 15.9687 5.49454C16.0416 6.31763 15.4078 6.74262 15.2048 6.85738C15.8619 7.56571 16.7793 8.98096 16.9979 10.9891C17.2171 8.98096 18.1346 7.56571 18.791 6.85738C18.588 6.74262 17.9549 6.31763 18.027 5.49454C18.027 5.49454 18.3991 6.16746 20.1299 5.86004C21.5616 5.60575 22.3538 5.97621 22.3538 6.45221C22.3538 6.45221 23.3716 6.57262 23.8272 6.86729C24.2827 7.16054 23.7989 7.89154 23.7989 7.89154C23.7303 7.75625 23.6334 7.67904 23.3575 7.61883C23.3575 7.61883 22.2569 7.33692 21.8735 8.0495C21.036 8.12033 20.3146 8.61758 19.9743 9.29617C19.9552 9.33583 19.6369 9.962 19.8343 11.2271C19.9383 11.8915 20.2679 12.4546 20.7375 12.9349C20.942 13.146 21.1973 13.2805 21.5064 13.2458C21.9952 13.1892 22.4026 12.9554 22.7513 12.6112C22.9423 12.4213 23.0024 12.2074 22.856 11.9595C22.8355 11.9262 22.8249 11.8894 22.8114 11.8518C22.3778 10.8106 22.7407 9.88975 23.4763 9.34433C24.016 8.94554 24.6406 8.89808 25.2744 8.98733C29.4561 9.57313 29.5962 13.7764 29.5962 15.074C29.5962 18.7397 29.652 21.3421 29.6782 21.8436C29.7206 22.6036 29.9873 22.763 30.1564 22.8834C29.8897 23.0676 27.7139 22.3869 27.1905 21.7395C27.1552 21.697 27.0844 21.6778 27.0285 21.6651C25.7327 21.3633 25.7306 20.0168 25.7058 19.6074C24.6215 19.6074 24.2006 18.4294 24.0853 18.122C23.9869 17.8474 23.9212 17.5621 23.8894 17.272C23.8894 17.8443 23.0378 18.3359 22.1204 17.4243C22.1204 18.3635 20.9943 18.1971 20.4348 17.6403C20.3853 17.8309 20.0741 18.3147 20.0741 18.3147C20.7177 18.4301 21.0077 18.5711 21.3119 18.8367C22.0235 19.46 22.1041 20.4978 22.1041 21.034C22.1041 21.034 23.0852 21.9874 23.4742 22.3394C23.5888 22.4457 23.7147 22.5392 23.842 22.6341C24.8464 21.5142 25.1831 21.952 25.181 21.9541C25.9244 21.6559 26.3375 22.1857 26.1748 22.4535C26.0015 22.2587 25.7193 22.3146 25.5495 22.4676C26.5539 22.6348 26.3212 23.3686 26.0496 23.5216C26.0496 23.3105 25.9831 23.0768 25.6676 23.0555C25.6832 23.3793 25.4639 23.4352 25.2546 23.4437C24.7573 23.465 23.9248 23.4876 23.6701 23.7341C23.5258 23.8744 23.5959 24.2866 23.4395 24.4262C23.3101 24.5423 23.1722 24.5289 23.1 24.5296C23.076 24.6812 23.1212 24.8519 23.3136 25.0537C22.59 25.1132 22.0475 24.4786 22.4068 24.1414C22.5568 23.9998 23.0632 23.5216 23.0887 23.3155C23.1212 23.0931 22.8871 22.8473 22.7244 22.7028C22.3757 22.394 22.0001 22.1177 21.6309 21.8315C21.5168 21.746 21.3962 21.6695 21.2702 21.6028C21.1575 21.5417 21.0254 21.5275 20.9023 21.5631C20.6244 21.6495 20.6286 21.6424 20.5558 21.595C20.2834 21.4158 19.7897 21.0127 18.7605 20.9008C18.8306 20.9433 18.878 20.9886 18.9169 21.041C18.9735 21.1168 19.0109 21.2089 19.0697 21.3343C19.1361 21.476 19.1878 21.6219 19.2479 21.7635C19.9128 23.3254 20.5706 24.8611 21.2327 26.4244C21.4534 26.9415 21.2574 27.3948 20.722 27.6427C20.3301 27.8248 19.8859 27.7277 19.6235 27.3523C19.6992 27.6101 19.7345 27.8318 19.6277 28.0472C19.5263 28.2581 19.3497 28.4234 19.1326 28.5104C18.9126 28.6072 18.6686 28.6353 18.4323 28.5912C18.194 28.5437 18.0362 28.3879 17.9139 28.1577C17.8934 28.6684 17.5567 29.0417 16.9979 29.0417Z" fill="white"/>
</svg>
