<svg width="172" height="19" viewBox="0 0 172 19" fill="none" xmlns="http://www.w3.org/2000/svg">
<path d="M88.8216 11.2015C88.8216 11.7588 88.7492 12.2618 88.6045 12.7105C88.4671 13.152 88.2826 13.5428 88.051 13.883C87.8195 14.2232 87.5482 14.5127 87.237 14.7515C86.9259 14.9904 86.6039 15.1858 86.2711 15.3378C85.9383 15.4897 85.5982 15.6019 85.2509 15.6743C84.9109 15.7467 84.5889 15.7829 84.285 15.7829H73.3993V12.9602H84.285C84.8277 12.9602 85.2473 12.801 85.544 12.4825C85.8479 12.1641 85.9998 11.737 85.9998 11.2015C85.9998 10.9409 85.96 10.7021 85.8804 10.4849C85.8008 10.2678 85.6851 10.0796 85.5331 9.92041C85.3884 9.76118 85.2075 9.63814 84.9905 9.55129C84.7806 9.46444 84.5455 9.42101 84.285 9.42101H77.7948C77.339 9.42101 76.847 9.3414 76.3188 9.18217C75.7906 9.0157 75.2986 8.75153 74.8428 8.38965C74.3942 8.02777 74.018 7.55371 73.7141 6.96746C73.4174 6.38121 73.2691 5.66469 73.2691 4.81789C73.2691 3.97109 73.4174 3.25818 73.7141 2.67917C74.018 2.09293 74.3942 1.61886 74.8428 1.25698C75.2986 0.887865 75.7906 0.623693 76.3188 0.464465C76.847 0.298 77.339 0.214767 77.7948 0.214767H87.3998V3.03744H77.7948C77.2594 3.03744 76.8398 3.20028 76.5359 3.52597C76.2392 3.85167 76.0909 4.28231 76.0909 4.81789C76.0909 5.36071 76.2392 5.79135 76.5359 6.1098C76.8398 6.42102 77.2594 6.57663 77.7948 6.57663H84.285H84.3067C84.6106 6.58387 84.9326 6.62729 85.2726 6.70691C85.6127 6.77928 85.9491 6.89508 86.282 7.05431C86.622 7.21354 86.944 7.41619 87.2479 7.66227C87.5518 7.90111 87.8195 8.19062 88.051 8.53078C88.2898 8.87095 88.4779 9.26178 88.6154 9.70328C88.7529 10.1448 88.8216 10.6442 88.8216 11.2015Z" fill="#0F0E0E"/>
<path d="M72.0969 15.7829H68.0921L61.7431 9.42101H59.757V6.57663H61.7431L68.0921 0.214767H72.0969L64.0982 7.99882L72.0969 15.7829ZM58.6282 15.7829H55.8064V0.214767H58.6282V15.7829Z" fill="#0F0E0E"/>
<path d="M52.4969 14.5778C52.4969 14.7805 52.4571 14.9686 52.3776 15.1423C52.3052 15.316 52.2039 15.468 52.0737 15.5983C51.9507 15.7214 51.8023 15.8191 51.6287 15.8914C51.455 15.9638 51.2705 16 51.0752 16C50.9015 16 50.7243 15.9674 50.5434 15.9023C50.3697 15.8372 50.2142 15.7322 50.0767 15.5875L39.7662 4.81789V15.7829H36.9444V1.41983C36.9444 1.13033 37.024 0.869772 37.1832 0.638169C37.3496 0.399327 37.5595 0.222006 37.8127 0.106204C38.0804 -0.00236014 38.3553 -0.0276917 38.6375 0.0302092C38.9197 0.0808725 39.1621 0.211149 39.3647 0.42104L49.6751 11.1798V0.214768H52.4969V14.5778Z" fill="#0F0E0E"/>
<path d="M33.6554 15.7829H30.8336V11.9614H20.9138V15.7829H18.092V7.99882C18.092 6.86251 18.2874 5.81668 18.6781 4.86131C19.0688 3.90595 19.6114 3.08448 20.306 2.39691C21.0006 1.70933 21.8219 1.17375 22.7697 0.790158C23.7175 0.406564 24.7522 0.214767 25.8737 0.214767H32.2336C32.429 0.214767 32.6135 0.250956 32.7871 0.323332C32.9608 0.395708 33.1127 0.497034 33.243 0.627311C33.3732 0.757588 33.4745 0.909578 33.5468 1.08328C33.6192 1.25698 33.6554 1.44154 33.6554 1.63696V15.7829ZM20.9138 9.13874H30.8336V3.03744H25.8737C25.7869 3.03744 25.6024 3.05191 25.3202 3.08086C25.0452 3.10257 24.7233 3.16409 24.3543 3.26542C23.9925 3.36675 23.609 3.52236 23.2038 3.73225C22.7986 3.94214 22.426 4.23164 22.086 4.60076C21.7459 4.96988 21.4637 5.43309 21.2394 5.99038C21.0224 6.54044 20.9138 7.20992 20.9138 7.99882V9.13874Z" fill="#0F0E0E"/>
<path d="M15.5525 5.44756C15.5525 6.09171 15.4729 6.6671 15.3137 7.17373C15.1546 7.68036 14.9375 8.1291 14.6625 8.51993C14.3948 8.90352 14.0837 9.23283 13.7292 9.50786C13.3746 9.78289 13.002 10.0109 12.6113 10.1918C12.2278 10.3655 11.8371 10.4922 11.4392 10.5718C11.0485 10.6514 10.6795 10.6912 10.3322 10.6912L16.2254 15.7829H11.8624L5.98006 10.6912H3.95053V7.86854H10.3322C10.6867 7.83959 11.0087 7.76722 11.2981 7.65141C11.5947 7.52837 11.848 7.36553 12.0578 7.16288C12.2749 6.96022 12.4413 6.71776 12.557 6.43549C12.6728 6.14599 12.7307 5.81668 12.7307 5.44756V3.66711C12.7307 3.50788 12.709 3.38846 12.6656 3.30885C12.6294 3.222 12.5788 3.16048 12.5136 3.12429C12.4557 3.08086 12.3906 3.05553 12.3183 3.04829C12.2532 3.04105 12.1917 3.03744 12.1338 3.03744H2.82181V15.7829H0V1.63696C0 1.44154 0.036177 1.25698 0.108531 1.08328C0.180885 0.909578 0.278563 0.757588 0.401565 0.627311C0.531802 0.497034 0.683746 0.395708 0.857396 0.323332C1.03105 0.250956 1.21917 0.214767 1.42176 0.214767H12.1338C12.7633 0.214767 13.2951 0.330569 13.7292 0.562173C14.1633 0.786539 14.5142 1.07242 14.7819 1.41983C15.0569 1.76 15.2522 2.12912 15.368 2.52718C15.491 2.92525 15.5525 3.29799 15.5525 3.6454V5.44756Z" fill="#0F0E0E"/>
<path d="M94.7956 14.4347C94.7956 14.6144 94.759 14.7842 94.6858 14.944C94.6192 15.0972 94.526 15.2337 94.4061 15.3536C94.2929 15.4667 94.1564 15.5566 93.9966 15.6232C93.8434 15.6898 93.6803 15.7231 93.5072 15.7231C93.3274 15.7231 93.1576 15.6898 92.9978 15.6232C92.8447 15.5566 92.7082 15.4667 92.5883 15.3536C92.4751 15.2337 92.3852 15.0972 92.3186 14.944C92.252 14.7842 92.2188 14.6144 92.2188 14.4347C92.2188 14.2615 92.252 14.0984 92.3186 13.9453C92.3852 13.7855 92.4751 13.6489 92.5883 13.5358C92.7082 13.4159 92.8447 13.3227 92.9978 13.2561C93.1576 13.1828 93.3274 13.1462 93.5072 13.1462C93.6803 13.1462 93.8434 13.1828 93.9966 13.2561C94.1564 13.3227 94.2929 13.4159 94.4061 13.5358C94.526 13.6489 94.6192 13.7855 94.6858 13.9453C94.759 14.0984 94.7956 14.2615 94.7956 14.4347Z" fill="#0F0E0E"/>
<path d="M171.618 10.1767H168.397V16H166.532V10.1767H164.134V8.33254H166.532V5.82874H168.397V8.33254H171.618V10.1767Z" fill="#0F0E0E"/>
<path d="M163.113 13.4111C163.113 13.7279 163.073 14.014 162.993 14.2693C162.912 14.5199 162.806 14.7422 162.673 14.9361C162.541 15.1252 162.387 15.2883 162.212 15.4255C162.037 15.5579 161.853 15.6666 161.659 15.7517C161.47 15.8369 161.276 15.9007 161.077 15.9433C160.884 15.9811 160.699 16 160.524 16H157.198C156.942 16 156.663 15.9551 156.361 15.8652C156.058 15.7754 155.777 15.6288 155.517 15.4255C155.261 15.2174 155.046 14.9502 154.871 14.624C154.701 14.293 154.616 13.8887 154.616 13.4111V10.9144C154.616 10.4415 154.701 10.0419 154.871 9.71566C155.046 9.38466 155.261 9.11749 155.517 8.91416C155.777 8.7061 156.058 8.55715 156.361 8.46731C156.663 8.37746 156.942 8.33254 157.198 8.33254H160.524C160.997 8.33254 161.399 8.41766 161.73 8.58789C162.061 8.75812 162.328 8.97327 162.531 9.23334C162.735 9.48869 162.881 9.76768 162.971 10.0703C163.066 10.3729 163.113 10.6543 163.113 10.9144V13.4111ZM161.269 10.9286C161.269 10.6732 161.205 10.4841 161.077 10.3611C160.95 10.2382 160.765 10.1767 160.524 10.1767H157.212C156.966 10.1767 156.779 10.2405 156.651 10.3682C156.524 10.4912 156.46 10.6732 156.46 10.9144V13.4111C156.46 13.6522 156.524 13.8367 156.651 13.9643C156.779 14.092 156.966 14.1558 157.212 14.1558H160.524C160.775 14.1558 160.962 14.092 161.085 13.9643C161.207 13.8367 161.269 13.6522 161.269 13.4111V10.9286Z" fill="#0F0E0E"/>
<path d="M153.587 16H152.764C152.5 16 152.216 15.9551 151.913 15.8652C151.615 15.7754 151.336 15.6288 151.076 15.4255C150.816 15.2174 150.601 14.9502 150.431 14.624C150.261 14.293 150.176 13.8887 150.176 13.4111V5.09108H152.02V13.4111C152.02 13.6381 152.091 13.8201 152.233 13.9572C152.374 14.0896 152.552 14.1558 152.764 14.1558H153.587V16Z" fill="#0F0E0E"/>
<path d="M148.445 6.75791H146.601V5.09108H148.445V6.75791ZM148.445 16H146.601V8.33254H148.445V16Z" fill="#0F0E0E"/>
<path d="M144.998 13.4111C144.998 13.7279 144.958 14.014 144.877 14.2693C144.797 14.5199 144.69 14.7422 144.558 14.9361C144.426 15.1252 144.272 15.2883 144.097 15.4255C143.922 15.5579 143.738 15.6666 143.544 15.7517C143.355 15.8369 143.163 15.9007 142.969 15.9433C142.775 15.9811 142.591 16 142.416 16H139.089V14.1558H142.416C142.662 14.1558 142.846 14.092 142.969 13.9643C143.092 13.8367 143.154 13.6522 143.154 13.4111V10.9286C143.154 10.6732 143.09 10.4841 142.962 10.3611C142.839 10.2382 142.657 10.1767 142.416 10.1767H139.104C138.853 10.1767 138.664 10.2405 138.536 10.3682C138.408 10.4912 138.345 10.6732 138.345 10.9144V18.3974H136.5V10.9144C136.5 10.5976 136.541 10.3138 136.621 10.0632C136.701 9.8126 136.808 9.59272 136.94 9.40357C137.077 9.2097 137.233 9.04656 137.408 8.91416C137.583 8.77703 137.765 8.66591 137.954 8.58079C138.148 8.49568 138.342 8.43421 138.536 8.39638C138.735 8.35382 138.919 8.33254 139.089 8.33254H142.416C142.733 8.33254 143.016 8.37274 143.267 8.45312C143.518 8.53351 143.738 8.6399 143.927 8.7723C144.121 8.90471 144.284 9.05839 144.416 9.23334C144.553 9.4083 144.664 9.59272 144.749 9.78659C144.835 9.97574 144.896 10.1672 144.934 10.3611C144.976 10.555 144.998 10.7394 144.998 10.9144V13.4111Z" fill="#0F0E0E"/>
<path d="M134.968 13.4111C134.968 13.7279 134.928 14.014 134.848 14.2693C134.767 14.5199 134.661 14.7422 134.529 14.9361C134.396 15.1252 134.242 15.2883 134.068 15.4255C133.893 15.5579 133.708 15.6666 133.514 15.7517C133.325 15.8369 133.131 15.9007 132.933 15.9433C132.739 15.9811 132.554 16 132.379 16H129.053C128.797 16 128.518 15.9551 128.216 15.8652C127.913 15.7754 127.632 15.6288 127.372 15.4255C127.116 15.2174 126.901 14.9502 126.726 14.624C126.556 14.293 126.471 13.8887 126.471 13.4111V10.9144C126.471 10.4415 126.556 10.0419 126.726 9.71566C126.901 9.38466 127.116 9.11749 127.372 8.91416C127.632 8.7061 127.913 8.55715 128.216 8.46731C128.518 8.37746 128.797 8.33254 129.053 8.33254H132.379C132.852 8.33254 133.254 8.41766 133.585 8.58789C133.916 8.75812 134.183 8.97327 134.387 9.23334C134.59 9.48869 134.737 9.76768 134.826 10.0703C134.921 10.3729 134.968 10.6543 134.968 10.9144V13.4111ZM133.124 10.9286C133.124 10.6732 133.06 10.4841 132.933 10.3611C132.805 10.2382 132.621 10.1767 132.379 10.1767H129.067C128.821 10.1767 128.634 10.2405 128.507 10.3682C128.379 10.4912 128.315 10.6732 128.315 10.9144V13.4111C128.315 13.6522 128.379 13.8367 128.507 13.9643C128.634 14.092 128.821 14.1558 129.067 14.1558H132.379C132.63 14.1558 132.817 14.092 132.94 13.9643C133.063 13.8367 133.124 13.6522 133.124 13.4111V10.9286Z" fill="#0F0E0E"/>
<path d="M125.443 10.1767H122.222V16H120.357V10.1767H117.96V8.33254H120.357V5.82874H122.222V8.33254H125.443V10.1767Z" fill="#0F0E0E"/>
<path d="M116.74 15.0708C116.74 15.2032 116.716 15.3262 116.669 15.4397C116.621 15.5531 116.555 15.6524 116.47 15.7376C116.39 15.8179 116.293 15.8818 116.179 15.9291C116.07 15.9764 115.952 16 115.825 16H111.654C111.427 16 111.183 15.974 110.923 15.922C110.668 15.87 110.415 15.7872 110.164 15.6737C109.914 15.5555 109.67 15.4089 109.434 15.234C109.202 15.0543 108.999 14.8391 108.824 14.5885C108.649 14.3332 108.507 14.04 108.398 13.709C108.294 13.378 108.242 13.0044 108.242 12.5883V8.33254H110.086V12.5883C110.086 12.8295 110.127 13.047 110.207 13.2408C110.292 13.43 110.406 13.5931 110.547 13.7303C110.689 13.8674 110.855 13.9738 111.044 14.0494C111.238 14.1204 111.446 14.1558 111.668 14.1558H114.895V8.33254H116.74V15.0708Z" fill="#0F0E0E"/>
<path d="M106.781 13.4607C106.781 13.7161 106.736 13.9927 106.646 14.2906C106.556 14.5838 106.41 14.858 106.207 15.1134C106.008 15.364 105.745 15.5744 105.419 15.7447C105.098 15.9149 104.705 16 104.242 16H100.915C100.66 16 100.383 15.9551 100.085 15.8652C99.7921 15.7754 99.5179 15.6312 99.2625 15.4326C99.0119 15.2292 98.8015 14.9668 98.6313 14.6452C98.461 14.319 98.3759 13.9241 98.3759 13.4607C98.3759 13.2054 98.4208 12.9288 98.5107 12.6309C98.6005 12.333 98.7448 12.0587 98.9434 11.8081C99.1467 11.5527 99.4091 11.3399 99.7307 11.1697C100.057 10.9995 100.452 10.9144 100.915 10.9144H104.242V12.6734H100.915C100.665 12.6734 100.471 12.7514 100.334 12.9075C100.196 13.0588 100.128 13.2479 100.128 13.4749C100.128 13.7161 100.206 13.9052 100.362 14.0423C100.523 14.1748 100.712 14.241 100.929 14.241H104.242C104.492 14.241 104.686 14.1653 104.823 14.014C104.961 13.8627 105.029 13.6735 105.029 13.4465V10.8718C105.029 10.6307 104.953 10.4391 104.802 10.2973C104.656 10.1554 104.469 10.0845 104.242 10.0845H100.192V8.33254H104.242C104.497 8.33254 104.771 8.37746 105.065 8.46731C105.362 8.55715 105.637 8.70374 105.887 8.90707C106.143 9.10567 106.355 9.36811 106.526 9.69439C106.696 10.0159 106.781 10.4084 106.781 10.8718V13.4607Z" fill="#0F0E0E"/>
</svg>
