<svg width="462" height="442" viewBox="0 0 462 442" fill="none" xmlns="http://www.w3.org/2000/svg">
<path d="M1.89838 0C3.24649 3.47293 6.23631 9.17657 10.794 14.8723C15.349 20.5646 21.4265 26.1952 28.9349 29.6074C35.1638 32.3568 51.1985 38.2907 65.4157 40.0227C71.6342 40.7625 81.1652 42.9972 89.6117 47.3197C97.903 51.5629 105.359 57.9319 107.345 67.0722L107.436 67.5095L107.439 67.5244L107.442 67.5383C108.335 72.8921 108.752 81.9035 107.135 91.6593C105.523 101.391 101.87 111.948 94.5614 120.348C84.2547 136.18 64.0448 178.458 65.4346 221.151L65.4356 221.191L65.4336 221.231C63.8559 255.91 82.8574 336.14 171.315 380.576L173.417 381.619L173.424 381.623L174.186 381.995C178.164 383.909 184.648 386.51 192.033 388.491C199.92 390.607 208.754 391.996 216.63 391.141L216.647 391.139L216.665 391.138L217.177 391.095C215.99 390.171 214.971 389.123 214.163 387.936L212.462 385.584C208.233 379.78 202.257 371.9 196.324 364.717C192.933 360.612 189.565 356.746 186.55 353.628C183.512 350.486 180.908 348.184 179.034 347.126L179.008 347.111L178.982 347.094C175.185 344.64 169.335 339.965 164.027 333.867C158.726 327.775 153.897 320.182 152.273 311.892L152.26 311.825L152.256 311.756C152.04 308.079 151.41 302.388 150.234 297.288C149.645 294.736 148.928 292.368 148.074 290.485C147.214 288.589 146.287 287.351 145.364 286.805C142.818 285.75 138.996 283.779 135.649 281.219C132.365 278.708 129.315 275.461 128.661 271.794C127.358 269.132 123.085 263.255 116.142 260.613L116.106 260.599L116.07 260.583C112.022 258.671 105.886 255.386 100.615 251.731C97.9818 249.905 95.5343 247.966 93.6678 246.039C91.8584 244.172 90.4707 242.189 90.1295 240.235C88.3739 234.235 84.6889 219.897 83.9761 210.357C83.7917 208.858 83.5765 207.235 83.351 205.691C83.3576 206.27 83.3669 206.89 83.3798 207.554C83.887 211.186 84.4193 216.077 84.333 218.875C84.3115 219.571 84.2504 220.227 84.1044 220.72C84.0351 220.953 83.9117 221.277 83.6611 221.535C83.5239 221.676 83.3319 221.813 83.0816 221.884C82.8268 221.957 82.5787 221.941 82.364 221.877C81.9774 221.762 81.6993 221.493 81.5222 221.288C81.3257 221.061 81.1361 220.775 80.9507 220.449C80.5869 219.811 80.174 218.905 79.7003 217.708C76.8906 213.181 71.9735 199.65 73.4694 180.004C73.9195 169.392 78.409 143.85 92.9164 126.139C100.556 114.118 121.295 85.9562 143.464 69.0826L143.502 69.0537L143.542 69.0279C145.037 68.096 146.79 67.0729 148.775 65.9841C150.405 64.8528 152.312 63.678 154.525 62.4722C162.186 58.2999 173.6 53.7093 190.154 49.1989C195.204 47.7385 200.48 46.4136 205.92 45.3005C207.242 45.0033 208.588 44.706 209.96 44.4111L210.032 44.3952L210.103 44.3902C210.401 44.3695 210.707 44.3502 211.022 44.3306C220.482 42.6645 230.363 41.6825 240.349 41.7638C261.052 41.1775 311.631 47.5506 348.652 77.8125C364.863 88.284 399.922 120.611 411.197 166.722C413.474 175.021 416.39 189.344 417.777 205.454C419.164 221.573 419.025 239.554 415.135 255.1L415.129 255.124L415.122 255.148C410.901 269.106 401.895 298.466 399.773 303.767L399.77 303.772C397.102 310.327 393.781 321.406 392.519 333.262C391.275 344.957 392.051 357.25 397.27 366.713L397.523 367.161L397.541 367.195L397.558 367.229C399.572 371.468 403.519 378.405 408.787 385.362C413.896 392.111 420.199 398.812 427.126 403.112L427.799 403.522L427.85 403.551L428.987 404.429C434.593 408.791 442.446 415.428 449.069 422.168C452.6 425.761 455.804 429.407 458.133 432.77C460.429 436.087 462 439.304 462 442H459.964C459.964 439.974 458.727 437.204 456.459 433.928C454.224 430.699 451.108 427.147 447.617 423.594C440.655 416.509 432.292 409.517 426.701 405.235C419.209 400.764 412.498 393.634 407.165 386.59C401.825 379.538 397.813 372.501 395.736 368.138C389.994 358.074 389.214 345.079 390.495 333.048C391.779 320.979 395.154 309.714 397.884 303.005C399.967 297.8 408.923 268.611 413.166 254.58C416.973 239.349 417.126 221.632 415.749 205.628C414.372 189.624 411.472 175.409 409.227 167.233L409.219 167.205C398.094 121.711 363.41 89.7496 347.502 79.492L347.453 79.4611L347.408 79.4244C310.899 49.5526 260.839 43.2198 240.405 43.7989L240.387 43.7999H240.368C236.81 43.7701 233.264 43.8788 229.746 44.105C232.21 44.1863 234.738 44.3139 237.277 44.4995C247.736 45.264 258.53 47.0149 265.724 50.5891C268.884 51.7282 274.675 56.3781 276.193 66.3379C277.899 67.6241 279.662 69.2788 281.397 71.391C282.537 72.5992 284.212 74.0452 285.606 74.6554C286.323 74.9691 286.739 74.9618 286.938 74.88C287.059 74.8304 287.37 74.6375 287.519 73.6726L287.525 73.6349L287.533 73.5981C287.669 73.0087 287.945 72.3415 288.435 71.8124C288.95 71.2561 289.69 70.8715 290.624 70.92C291.511 70.9661 292.446 71.3964 293.427 72.1721C294.408 72.9467 295.509 74.123 296.751 75.8022C298.553 77.762 300.899 80.983 302.09 84.3543C303.28 87.7225 303.401 91.5678 300.169 94.241C298.379 96.0312 295.814 98.9402 293.918 101.853C292.966 103.316 292.211 104.739 291.796 105.994C291.371 107.276 291.36 108.21 291.639 108.824L291.731 109.025V109.245C291.731 110.639 291.459 112.513 290.714 114.35C291.184 115.774 291.314 117.447 290.869 119.361C291.003 119.502 291.281 119.735 291.808 120.036C292.87 120.643 294.742 121.423 297.868 122.306L299.287 122.691L299.334 122.703L299.381 122.72L299.69 122.843C301.261 123.513 303.176 125.017 304.36 127.513C305.632 130.198 306.013 133.929 304.379 138.84C303.909 140.533 303.688 143.093 304.465 145.298C304.849 146.389 305.472 147.378 306.419 148.154C307.364 148.928 308.685 149.533 310.535 149.775C312.124 149.973 314.499 149.765 316.437 148.556C318.291 147.398 319.879 145.243 319.897 141.232C319.313 137.287 318.508 131.351 317.977 126.251C317.71 123.686 317.511 121.314 317.445 119.509C317.412 118.61 317.411 117.823 317.456 117.214C317.479 116.912 317.516 116.623 317.576 116.371C317.608 116.235 317.666 116.024 317.785 115.816C318.076 114.881 319.047 114.297 320.323 114.199C321.709 114.093 323.714 114.496 326.576 115.746C329.921 117.199 334.524 118.902 337.598 119.39C338.362 119.512 338.978 119.549 339.43 119.509C339.799 119.476 339.952 119.399 340.002 119.37C340.005 119.328 340.003 119.242 339.959 119.087C339.856 118.73 339.58 118.187 339.017 117.419C335.378 114.941 330.497 111.406 327.564 108.754C326.819 108.08 326.175 107.442 325.704 106.877C325.469 106.595 325.26 106.311 325.101 106.034C324.951 105.772 324.798 105.435 324.77 105.064C324.737 104.635 324.879 104.163 325.294 103.833C325.642 103.555 326.062 103.478 326.39 103.458C326.972 103.422 327.737 103.545 328.662 103.784L329.068 103.893L329.231 103.939L329.372 104.035C332.42 106.138 336.903 108.991 340.471 110.748C342.289 111.643 343.735 112.185 344.608 112.276C344.743 112.29 344.839 112.289 344.906 112.285C344.904 112.271 344.903 112.256 344.901 112.24L344.873 112.097L344.831 111.918L344.856 111.735C344.991 110.725 345.169 108.947 345.285 106.809C340.208 102.333 337.376 98.6927 335.967 95.8339C334.254 92.3582 334.535 89.7185 335.983 88.3829L336.028 88.3422L336.078 88.3064L336.402 88.0818C338.018 87.0056 339.565 86.6499 341.002 87.0116C342.5 87.3886 343.637 88.4864 344.481 89.7612C346.054 92.1373 346.905 95.5652 347.251 98.1334L347.314 98.6353L347.318 98.683C347.481 101.133 347.462 103.672 347.366 105.917C347.911 106.386 348.48 106.867 349.078 107.356L350.435 108.446L350.481 108.483L350.523 108.526C351.065 109.067 353.888 110.416 359.202 107.149C360.12 106.138 361.768 106.078 363.637 107.026C365.621 108.033 368.227 110.303 371.554 114.661C372.627 115.584 374.412 116.984 376.347 118.242C378.232 119.467 380.153 120.484 381.661 120.861L381.956 120.928L382.235 120.983L382.445 121.176C385.141 123.651 388.678 127.09 390.402 129.276C390.827 129.815 391.198 130.346 391.402 130.803C391.497 131.015 391.616 131.34 391.592 131.699C391.578 131.898 391.519 132.136 391.359 132.358C391.197 132.584 390.981 132.725 390.77 132.802C390.397 132.939 390.018 132.889 389.764 132.837C389.477 132.777 389.157 132.668 388.814 132.528C388.124 132.245 387.216 131.78 386.064 131.116L386.002 131.081L385.947 131.037C383.353 129.021 379.039 125.99 374.56 123.469C372.321 122.208 370.059 121.085 367.962 120.28C365.85 119.469 363.978 119.008 362.498 119.008H362.444L362.392 119.003C361.129 118.87 359.499 119.076 358.459 119.902C357.967 120.293 357.583 120.838 357.416 121.628C357.266 122.337 357.28 123.29 357.615 124.556L357.778 125.117L357.787 125.147L357.795 125.177C358.199 126.792 358.242 129.253 356.797 131.155C355.291 133.136 352.459 134.155 347.892 133.425L347.879 133.423L347.865 133.42L340.862 132.108L340.849 132.106L340.836 132.103C339.9 131.903 338.372 131.741 336.9 131.912C335.408 132.084 334.211 132.567 333.582 133.421L323.985 149.984L323.974 150.002L323.962 150.019C322.963 151.587 321.503 154.163 320.384 156.763C319.824 158.063 319.359 159.345 319.078 160.496C318.827 161.522 318.739 162.369 318.809 163.006L318.849 163.266L318.867 163.356L318.869 163.449L318.891 165.197C318.926 169.499 318.852 175.263 318.528 180.364C318.343 183.275 318.074 185.999 317.691 188.119C317.5 189.177 317.276 190.117 317.005 190.868C316.793 191.457 316.501 192.075 316.065 192.503C313.194 198.836 310.591 214.299 322.388 227.293L322.967 227.916L322.984 227.935L323.001 227.955C325.575 230.955 330.022 235.179 334.956 238.081C339.939 241.012 345.115 242.423 349.362 240.381L349.404 240.361L349.447 240.345C352.819 239.082 363.217 233.817 377.154 223.032C378.627 221.579 381.099 219.824 383.806 219.361C385.202 219.123 386.687 219.225 388.109 219.922C389.442 220.574 390.64 221.709 391.643 223.407L391.84 223.754L391.88 223.827L391.908 223.906L397.128 238.682C398.905 241.692 401.14 250.166 397.615 262.137L397.612 262.147C396.533 265.669 395.035 271.761 394.069 278.532C393.101 285.315 392.678 292.702 393.703 298.848L393.729 299.002L393.708 299.156C392.075 310.873 382.369 338.548 356.537 356.24C349.474 361.895 336.739 370.622 321.38 378.508C306.012 386.4 287.955 393.485 270.291 395.782C262.724 397.029 250.878 398.151 239.886 397.464C234.388 397.12 229.059 396.322 224.571 394.836C222.899 394.283 221.327 393.628 219.899 392.856C218.724 392.999 217.676 393.102 216.841 393.164C208.612 394.056 199.504 392.603 191.505 390.457C183.494 388.307 176.514 385.441 172.514 383.443C81.4208 338.818 61.792 256.779 63.3981 221.17C62.0045 177.875 82.472 135.162 92.8906 119.184L92.9304 119.124L92.9771 119.07C99.9901 111.039 103.548 100.855 105.127 91.3264C106.704 81.8101 106.291 73.034 105.436 67.8911C103.771 59.4315 96.8907 53.331 88.6843 49.1313C80.4987 44.9423 71.2097 42.761 65.1722 42.043H65.1692C50.6728 40.2769 34.4329 34.2588 28.114 31.4696L28.104 31.4647C20.2102 27.8802 13.8894 21.999 9.20368 16.1432C4.51875 10.2884 1.42412 4.40432 0 0.735365L1.89838 0ZM139.998 226.431C139.998 221.929 141.599 210.934 148.078 202.65C150.554 199.157 154.436 193.557 158.048 188.09C161.641 182.652 164.919 177.414 166.31 174.498C166.797 172.353 169.561 168.662 176.536 166.884C178.23 166.027 180.337 164.647 181.448 163.231C182.013 162.511 182.2 161.936 182.151 161.51C182.109 161.143 181.856 160.608 180.845 160.015C179.317 159.465 177.229 158.362 176.042 156.729C175.414 155.866 175.006 154.807 175.136 153.602C175.263 152.427 175.884 151.264 177.005 150.126C177.677 149.211 178.961 148.217 180.76 147.923C182.633 147.616 184.937 148.085 187.551 149.946C188.669 150.714 190.578 151.836 192.616 152.676C194.702 153.534 196.72 154.009 198.156 153.722L198.181 153.718L198.205 153.714C199.574 153.509 201.141 152.892 201.869 151.9C202.2 151.448 202.378 150.896 202.266 150.164C202.164 149.494 201.809 148.624 201.004 147.535L200.63 147.054L200.622 147.044L200.613 147.033C199.19 145.185 196.631 142.282 193.614 139.634C190.575 136.966 187.183 134.654 184.091 133.841L184.071 133.836L184.051 133.83C183.135 133.549 181.672 133.168 180.281 132.944C179.585 132.832 178.933 132.763 178.389 132.76C177.957 132.758 177.668 132.797 177.497 132.845L177.364 132.893L177.332 132.909L177.3 132.922C176.287 133.344 174.661 133.697 173.001 133.387C171.301 133.069 169.604 132.055 168.575 129.852C167.899 128.711 166.627 127.13 165.036 126.089C163.457 125.056 161.682 124.617 159.826 125.473L159.821 125.476C158.452 126.098 155.238 128.546 154.267 133.071L154.265 133.083L154.261 133.096C153.748 135.221 152.912 138.454 152.069 141.251C151.649 142.646 151.221 143.953 150.827 144.963C150.631 145.466 150.434 145.919 150.242 146.28C150.146 146.46 150.041 146.636 149.929 146.791C149.877 146.861 149.813 146.942 149.736 147.023C149.436 147.7 149.052 148.417 148.606 149C148.358 149.323 148.069 149.637 147.737 149.88C147.407 150.122 146.978 150.334 146.472 150.348C145.348 150.379 144.626 149.48 144.18 148.466C143.713 147.407 143.344 145.809 143.078 143.543C142.876 142.688 142.368 141.225 141.498 139.688C140.618 138.132 139.401 136.56 137.821 135.45C136.832 134.862 136.025 133.607 136.229 131.813C136.431 130.048 137.593 127.85 140.265 125.173C141.48 123.664 143.629 121.347 146.229 119.177C148.828 117.007 151.957 114.915 155.108 113.974C157.708 112.86 164.902 111.382 174.434 113.484C176.612 113.676 179.628 113.263 181.79 111.543C183.874 109.884 185.398 106.816 184.229 101.142L184.223 101.118L184.219 101.092C183.765 98.148 183.65 93.5423 184.788 89.2326C185.921 84.9451 188.352 80.7698 193.119 79.0199C194.182 78.4452 195.825 77.7664 197.882 77.2163C198.658 76.7227 199.38 76.228 199.976 75.7535C200.422 75.3992 200.774 75.0767 201.022 74.7975C201.131 74.6743 201.206 74.5716 201.258 74.4925C201.177 74.4672 201.069 74.4404 200.926 74.4149C188.173 75.4409 161.526 77.72 155.229 78.7596C152.219 79.5631 147.894 80.4746 144.71 80.5612C143.903 80.5831 143.137 80.5536 142.468 80.4449C141.817 80.3393 141.158 80.1444 140.647 79.7632C140.081 79.3408 139.731 78.7093 139.77 77.9288C139.799 77.3251 140.058 76.7208 140.442 76.1291C140.486 75.2862 140.772 74.365 141.301 73.3835C120.676 90.2435 101.773 115.987 94.6031 127.281L94.5693 127.333L94.5306 127.381C80.372 144.63 75.9343 169.737 75.501 180.124V180.142L75.499 180.158C74.067 198.964 78.6443 211.869 81.2299 216.304L81.4735 216.706L81.5241 216.787L81.5599 216.876C81.8364 217.579 82.0849 218.153 82.3014 218.615C82.3521 215.957 81.8538 211.329 81.3552 207.77L81.3472 207.71L81.3452 207.649C81.2579 203.2 81.3116 200.544 81.4715 199.222C81.5113 198.893 81.5646 198.59 81.6434 198.346C81.6814 198.228 81.7442 198.064 81.8541 197.907C81.9565 197.76 82.211 197.466 82.6592 197.417C83.1154 197.366 83.4305 197.605 83.5647 197.734C83.705 197.868 83.7963 198.018 83.8509 198.118C83.9648 198.328 84.0569 198.584 84.1342 198.834C84.4455 199.838 84.7843 201.65 85.1042 203.669C85.3471 205.202 85.5851 206.896 85.797 208.527L85.9998 210.129L86.0027 210.152L86.0047 210.177C86.6533 218.924 89.9013 231.973 91.7456 238.488L92.0945 239.7L92.1124 239.763L92.1223 239.827C92.334 241.167 93.3627 242.799 95.1299 244.623C96.868 246.417 99.1975 248.272 101.776 250.06C106.92 253.627 112.939 256.852 116.917 258.731C124.313 261.566 128.876 267.705 130.416 270.747L130.555 271.033L130.619 271.165L130.642 271.31C131.102 274.221 133.624 277.109 136.885 279.603C139.897 281.906 143.342 283.723 145.751 284.76L146.218 284.957L146.279 284.982L146.336 285.014L146.616 285.187C147.995 286.1 149.07 287.754 149.928 289.644C150.86 291.699 151.614 294.213 152.218 296.831C153.418 302.034 154.056 307.796 154.282 311.554C155.82 319.335 160.393 326.59 165.563 332.531C170.729 338.468 176.423 343.014 180.068 345.373C182.217 346.596 184.987 349.083 188.014 352.213C191.079 355.384 194.486 359.295 197.894 363.421C203.859 370.643 209.861 378.558 214.109 384.387L215.816 386.75L215.832 386.772C216.882 388.322 218.404 389.641 220.315 390.753C221.759 390.564 223.366 390.314 224.98 389.996C228.217 389.357 231.355 388.47 233.298 387.338L233.493 387.224L233.719 387.203C236.65 386.937 243.744 384.504 247.76 376.87C248.889 373.588 251.145 368.485 254.309 363.654C257.486 358.802 261.668 354.087 266.663 351.869L266.679 351.862L266.694 351.856C268.976 350.93 272.473 349.215 275.512 347.099C277.031 346.042 278.409 344.903 279.46 343.735C280.514 342.564 281.179 341.428 281.395 340.371C281.98 337.155 282.947 332.201 283.943 327.783C284.44 325.574 284.948 323.487 285.422 321.815C285.659 320.979 285.891 320.235 286.112 319.625C286.309 319.083 286.52 318.584 286.745 318.218C288.1 315.214 289.706 310.565 290.172 306.316C290.407 304.178 290.345 302.215 289.871 300.637C289.405 299.086 288.559 297.949 287.214 297.312L287.015 297.219L286.873 297.05C286.658 296.797 286.023 296.349 284.67 295.925C283.353 295.512 281.464 295.155 278.885 294.993C273.73 294.668 265.907 295.128 254.582 297.391L254.561 297.394L254.54 297.397C249.643 298.162 237.169 297.48 225.388 288.947C222.708 287.408 214.431 283.914 203.049 282.536L202.897 282.517L183.061 273.711L183.02 273.692L182.98 273.67C180.42 272.249 176.154 270.366 171.736 269.356C167.27 268.336 162.92 268.271 159.953 270.136L151.23 276.238L151.191 276.265L151.15 276.288C149.481 277.24 146.672 278.221 143.558 278.127C140.404 278.032 136.942 276.832 134.106 273.433L134 273.304L133.939 273.148C133.074 270.914 131.601 267.475 130.003 264.431C129.204 262.908 128.386 261.507 127.608 260.412C126.901 259.416 126.303 258.787 125.86 258.493L125.679 258.386L125.65 258.372L125.621 258.356C124.622 257.773 123.281 256.638 122.472 255.067C121.644 253.461 121.392 251.419 122.575 249.195C122.992 248.148 123.555 246.435 123.887 244.703C124.055 243.828 124.159 242.973 124.164 242.208C124.169 241.433 124.071 240.818 123.886 240.387L123.829 240.255L123.811 240.113C123.77 239.779 123.559 239.308 123.078 239.032C122.621 238.77 121.703 238.562 119.996 239.165C118.884 239.82 117.087 240.437 115.069 240.301C112.961 240.16 110.674 239.198 108.754 236.744C107.446 235.503 105.646 233.355 104.378 230.822C103.107 228.282 102.293 225.195 103.268 222.217C103.966 219.065 107.551 213.057 116.373 212.303C118.015 211.999 120.562 211.867 123.012 212.455C125.468 213.044 127.969 214.399 129.209 217.177L135.258 225.811C135.777 226.466 136.418 227.179 137.082 227.779C137.767 228.398 138.4 228.828 138.894 229.003C139.133 229.087 139.277 229.09 139.35 229.078C139.399 229.07 139.449 229.053 139.519 228.969C139.718 228.733 139.998 228.05 139.998 226.431ZM212.964 79.1799C207.546 77.6646 202.414 78.1585 198.708 79.1044C197.19 80.0547 195.534 80.9569 194.176 81.6414C194.041 81.8373 194 82.1829 194.359 82.8766C194.742 83.618 195.416 84.3737 195.942 84.8482C196.972 85.5942 198.041 86.9621 199.073 88.5518C200.149 90.2103 201.263 92.2325 202.329 94.3463C204.196 98.0475 205.947 102.083 207.143 105.05L207.621 106.251L207.622 106.253L207.931 107.037C211.124 114.999 214.293 118.824 216.829 120.446C219.373 122.072 221.27 121.494 222.217 120.706L222.418 120.539L222.676 120.49C226.628 119.73 229.091 115.99 230.502 111.095C231.894 106.264 232.134 100.703 231.92 97.0622L231.916 97.0006L231.92 96.939C232.24 91.8248 229.327 87.8166 225.312 84.8204C221.298 81.8238 216.337 79.9695 213.007 79.1908L212.986 79.1859L212.964 79.1799ZM271.259 105.953C270.182 106.037 269.63 106.378 269.348 106.694C269.085 106.989 268.965 107.366 268.966 107.768C270.668 113.305 273.019 116.212 275.143 117.65C277.289 119.103 279.265 119.108 280.34 118.769L280.511 118.715L280.69 118.723C284.346 118.881 286.536 117.354 287.859 115.417C288.104 115.057 288.32 114.681 288.51 114.298C288.343 113.939 288.151 113.607 287.939 113.301C286.964 111.893 285.583 111.002 284.645 110.628L284.588 110.605L284.533 110.574C277.561 106.743 273.48 105.781 271.259 105.953ZM340.505 88.9851C339.744 88.7937 338.716 88.9304 337.329 89.9143C336.882 90.3703 336.271 91.8453 337.793 94.9346C338.936 97.2547 341.227 100.318 345.386 104.156C345.422 102.44 345.405 100.618 345.288 98.8479C345.001 96.3569 344.195 93.0165 342.783 90.8851C342.081 89.8243 341.313 89.1883 340.505 88.9851ZM274.295 67.4707C270.291 64.6685 266.874 64.1755 265.445 64.3434L265.385 64.3504H265.325C263.594 64.3503 262.506 64.6615 261.841 65.0639C261.208 65.4469 260.9 65.9466 260.77 66.5118C260.633 67.1112 260.69 67.8315 260.903 68.5946C261.086 69.2562 261.373 69.9008 261.683 70.446L261.817 70.6725L261.836 70.7043L261.853 70.7371C264.552 75.9621 269.301 80.5518 274.214 84.1814C279.07 87.7691 284.006 90.3578 287.078 91.6523C289.437 92.1484 290.752 92.0783 291.408 91.8272C291.704 91.7137 291.818 91.5822 291.872 91.4863C291.933 91.378 291.982 91.1954 291.954 90.8881C291.892 90.236 291.509 89.3308 290.861 88.3014C290.246 87.3231 289.459 86.3354 288.703 85.506C279.197 78.1003 275.224 71.1725 274.417 68.4307L274.39 68.3373L274.38 68.2409C274.355 67.9804 274.326 67.7237 274.295 67.4707ZM142.034 226.431C142.034 228.135 141.767 229.459 141.077 230.28C140.703 230.724 140.222 230.996 139.681 231.085C139.165 231.171 138.66 231.079 138.214 230.921C137.34 230.612 136.469 229.968 135.718 229.289C134.949 228.594 134.226 227.788 133.652 227.062L133.634 227.039L133.617 227.015L127.489 218.269L127.429 218.184L127.388 218.087C126.51 216.041 124.668 214.945 122.537 214.433C120.399 213.92 118.119 214.042 116.695 214.313L116.642 214.323L116.589 214.327C108.702 214.984 105.751 220.305 105.245 222.705L105.233 222.763L105.214 222.818C104.461 225.073 105.032 227.58 106.198 229.911C107.213 231.938 108.62 233.709 109.739 234.857L110.199 235.31L110.258 235.365L110.308 235.43C111.878 237.469 113.65 238.167 115.205 238.271C116.806 238.379 118.24 237.859 119.036 237.37L119.124 237.316L119.221 237.28C121.315 236.52 122.928 236.6 124.091 237.266C125.175 237.888 125.672 238.912 125.81 239.725C126.106 240.486 126.205 241.358 126.2 242.221C126.194 243.148 126.069 244.135 125.887 245.086C125.522 246.987 124.91 248.843 124.452 249.984L124.431 250.04L124.401 250.094C123.53 251.688 123.718 253.041 124.282 254.135C124.871 255.279 125.889 256.153 126.639 256.593C127.566 257.076 128.46 258.097 129.267 259.233C130.119 260.433 130.986 261.923 131.806 263.486C133.409 266.541 134.88 269.962 135.772 272.248C138.168 275.053 141.009 276.013 143.618 276.092C146.281 276.172 148.706 275.329 150.106 274.539L158.837 268.435L158.857 268.422C162.544 266.096 167.6 266.323 172.189 267.372C176.806 268.426 181.226 270.376 183.923 271.866L203.45 280.536C214.322 281.873 222.474 285.093 225.832 286.868L226.441 287.204L226.487 287.231L226.53 287.261C237.839 295.477 249.781 296.077 254.219 295.387C265.636 293.108 273.633 292.623 279.014 292.961C281.706 293.131 283.765 293.508 285.279 293.983C286.637 294.409 287.659 294.945 288.272 295.568C290.139 296.521 291.248 298.147 291.82 300.052C292.404 301.994 292.445 304.261 292.195 306.539C291.694 311.097 289.989 315.993 288.576 319.113L288.542 319.188L288.496 319.258C288.393 319.411 288.232 319.75 288.026 320.319C287.827 320.866 287.61 321.559 287.38 322.37C286.921 323.991 286.423 326.037 285.928 328.23C285.187 331.518 284.462 335.111 283.9 338.051L283.398 340.738L283.396 340.746L283.395 340.755C283.082 342.317 282.155 343.782 280.973 345.097C279.782 346.42 278.271 347.659 276.675 348.77C273.498 350.981 269.877 352.757 267.489 353.728L267.49 353.729C263.031 355.709 259.115 360.03 256.011 364.769C252.923 369.484 250.726 374.478 249.656 377.614L249.631 377.687L249.595 377.757C245.292 385.995 237.706 388.796 234.124 389.206C231.867 390.463 228.544 391.367 225.374 391.992C224.775 392.11 224.176 392.217 223.587 392.317C224.111 392.523 224.652 392.719 225.211 392.904C229.471 394.315 234.609 395.095 240.013 395.433C250.819 396.108 262.514 395.002 269.975 393.772L269.992 393.769L270.01 393.767C287.357 391.514 305.185 384.537 320.45 376.698C335.71 368.862 348.345 360.197 355.295 354.629L355.326 354.605L355.358 354.583C380.518 337.367 390.033 310.414 391.669 299.021C390.628 292.609 391.081 285.053 392.053 278.244C393.035 271.366 394.557 265.171 395.666 261.551C399.1 249.877 396.756 241.969 395.333 239.643L395.277 239.551L395.241 239.451L390.017 224.666C389.143 223.102 388.168 222.217 387.214 221.749C386.246 221.275 385.209 221.186 384.149 221.367C381.982 221.737 379.844 223.221 378.537 224.527L378.491 224.572L378.44 224.612C364.41 235.474 353.829 240.87 350.181 242.242C344.989 244.702 339.033 242.839 333.925 239.835C328.761 236.798 324.157 232.423 321.476 229.303C308.159 215.266 311.125 198.26 314.303 191.457L314.416 191.215L314.634 191.059L314.673 191.019C314.699 190.988 314.737 190.936 314.786 190.855C314.879 190.699 314.982 190.477 315.09 190.178C315.306 189.58 315.507 188.763 315.688 187.758C316.051 185.751 316.313 183.118 316.496 180.236C316.86 174.512 316.904 167.916 316.833 163.559C316.645 162.491 316.798 161.25 317.101 160.012C317.419 158.713 317.928 157.318 318.514 155.958C319.682 153.245 321.193 150.579 322.236 148.939L331.852 132.347L331.877 132.305L331.905 132.265C333.033 130.688 334.963 130.087 336.665 129.89C338.388 129.691 340.13 129.874 341.237 130.108L348.237 131.419C352.409 132.08 354.313 131.06 355.177 129.924C356.098 128.712 356.144 126.984 355.823 125.686C355.274 123.932 355.161 122.449 355.424 121.207C355.694 119.935 356.345 118.982 357.191 118.309C358.808 117.024 361.038 116.825 362.548 116.974C364.382 116.984 366.507 117.541 368.692 118.38C370.912 119.232 373.268 120.405 375.559 121.695C380.106 124.255 384.471 127.319 387.135 129.383C387.634 129.67 388.073 129.91 388.454 130.108C386.78 128.104 383.751 125.148 381.265 122.858C379.374 122.406 377.175 121.207 375.238 119.948C373.428 118.772 371.749 117.481 370.604 116.525L370.068 116.067L370.004 115.983C366.712 111.656 364.307 109.649 362.716 108.841C361.926 108.44 361.396 108.365 361.09 108.388C360.874 108.404 360.767 108.467 360.718 108.51L360.685 108.545L360.572 108.696L360.411 108.796C354.667 112.382 350.672 111.48 349.137 110.014C348.468 109.485 347.83 108.965 347.218 108.456C347.116 109.863 346.995 111.037 346.893 111.833C347.01 112.489 346.96 113.24 346.384 113.786C345.806 114.334 345.002 114.364 344.396 114.301C343.124 114.167 341.386 113.468 339.571 112.574C335.93 110.782 331.439 107.925 328.362 105.81C327.911 105.688 327.545 105.606 327.254 105.556C327.258 105.561 327.263 105.568 327.267 105.574C327.651 106.033 328.215 106.598 328.929 107.244C331.434 109.508 335.479 112.495 338.891 114.864L340.309 115.837L340.449 115.932L340.55 116.067C341.235 116.98 341.706 117.799 341.915 118.527C342.129 119.275 342.103 120.09 341.532 120.722C341.022 121.287 340.268 121.476 339.612 121.535C338.922 121.597 338.12 121.534 337.279 121.401C333.934 120.869 329.128 119.074 325.762 117.612L325.76 117.611C323.019 116.413 321.377 116.16 320.479 116.228C319.945 116.269 319.77 116.401 319.723 116.456L319.677 116.731L319.553 116.854C319.529 116.958 319.504 117.124 319.486 117.367C319.449 117.865 319.446 118.563 319.478 119.434C319.542 121.171 319.736 123.49 320.002 126.041C320.532 131.137 321.34 137.089 321.922 141.016L321.933 141.091V141.165C321.933 145.857 320.027 148.713 317.515 150.282C315.076 151.805 312.197 152.034 310.284 151.795L310.278 151.794C308.105 151.511 306.412 150.779 305.13 149.729C303.85 148.681 303.033 147.358 302.546 145.975C301.583 143.243 301.88 140.218 302.426 138.267L302.433 138.244L302.441 138.22C303.95 133.697 303.529 130.513 302.52 128.385C301.509 126.251 299.861 125.076 298.711 124.642C294.688 123.59 292.234 122.623 290.8 121.804C290.085 121.396 289.558 120.988 289.224 120.572C288.939 120.216 288.636 119.628 288.862 119.001C289.023 118.343 289.097 117.727 289.105 117.153C287.396 119.311 284.721 120.884 280.771 120.76C279.071 121.231 276.543 121.057 274.001 119.336C271.364 117.55 268.775 114.15 266.978 108.229L266.943 108.112L266.936 107.99C266.887 107.121 267.116 106.14 267.828 105.341C268.545 104.537 269.643 104.037 271.101 103.924C273.943 103.703 278.455 104.921 285.459 108.762C286.628 109.242 288.191 110.251 289.384 111.826C289.585 110.962 289.677 110.136 289.691 109.436C289.214 108.178 289.408 106.731 289.863 105.355C290.356 103.867 291.214 102.278 292.213 100.743C294.214 97.6675 296.891 94.6392 298.748 92.7842L298.785 92.7474L298.825 92.7136C301.132 90.8412 301.25 88.0846 300.171 85.032C299.095 81.9852 296.913 78.9758 295.219 77.1418L295.18 77.1L295.147 77.0553C293.952 75.4354 292.962 74.3986 292.165 73.769C291.361 73.1338 290.824 72.9681 290.518 72.9522C290.259 72.9387 290.085 73.0267 289.93 73.1946C289.751 73.3878 289.602 73.6927 289.518 74.0463C289.309 75.3245 288.755 76.3334 287.714 76.7622C286.735 77.1657 285.663 76.9016 284.79 76.5197C283.231 75.8373 281.574 74.4536 280.384 73.2692L279.905 72.7763L279.88 72.7504L279.859 72.7226C278.993 71.6656 278.124 70.7371 277.266 69.9193C278.842 72.8918 282.432 77.8725 289.165 83.2761L290.024 83.9558L290.092 84.0075L290.15 84.0711L290.465 84.4209C291.203 85.2567 291.963 86.2296 292.585 87.2182C293.278 88.3202 293.874 89.5579 293.981 90.6983C294.036 91.2872 293.966 91.9141 293.647 92.4821C293.321 93.0624 292.795 93.4747 292.135 93.7272C290.887 94.2051 289.046 94.1569 286.561 93.6249L286.468 93.605L286.381 93.5682C283.172 92.2263 278.044 89.5415 273.004 85.8181C267.982 82.1076 262.964 77.3047 260.059 71.6971C259.624 70.9803 259.204 70.0885 258.941 69.1392C258.674 68.1807 258.547 67.0967 258.785 66.0566C259.032 64.9822 259.659 64.0055 260.787 63.3229C261.874 62.6653 263.356 62.3209 265.277 62.3152C267.039 62.1305 270.194 62.6287 273.823 64.7529C272.015 56.7664 267.207 53.2623 264.99 52.4872L264.929 52.4663L264.871 52.4375C258.058 49.0346 247.58 47.2936 237.129 46.5297C227.265 45.8087 217.56 45.9661 211.266 46.3538C209.618 46.6451 207.983 46.9557 206.362 47.2869C200.689 48.5627 195.486 49.8553 190.719 51.1536C173.623 56.0986 159.155 62.6186 149.851 67.7142C147.79 69.1509 146.232 70.4892 145.089 71.6971C143.043 73.8599 142.446 75.4778 142.471 76.4233L142.481 76.7651L142.282 77.0424C141.891 77.5894 141.81 77.9025 141.803 78.0292C141.801 78.0712 141.79 78.0764 141.864 78.1315C141.993 78.2281 142.277 78.3527 142.794 78.4366C143.293 78.5175 143.921 78.547 144.655 78.527C147.615 78.4465 151.79 77.5761 154.76 76.78L154.807 76.7671L154.855 76.7592C161.213 75.7006 188.236 73.3937 200.901 72.3758L201.02 72.3659L201.137 72.3848C201.769 72.4818 202.387 72.6675 202.828 73.0615C203.066 73.2739 203.252 73.5482 203.343 73.8783C203.432 74.2027 203.411 74.5172 203.342 74.7906C203.211 75.3056 202.881 75.7675 202.544 76.148C202.476 76.2246 202.403 76.2998 202.328 76.3766C205.645 75.9975 209.491 76.0995 213.488 77.2133C217.015 78.0403 222.243 79.9888 226.53 83.1887C230.809 86.3824 234.304 90.9522 233.953 96.9986C234.171 100.792 233.925 106.567 232.458 111.659C231.025 116.628 228.304 121.337 223.312 122.432C221.609 123.708 218.837 124.145 215.732 122.16C212.573 120.14 209.08 115.634 205.724 106.99C204.565 104.023 202.608 99.4204 200.511 95.2635C199.462 93.1834 198.386 91.2325 197.365 89.6599C196.322 88.053 195.409 86.9569 194.709 86.467L194.66 86.4322L194.615 86.3925C193.978 85.8238 193.094 84.8633 192.55 83.8107C192.262 83.2535 192.006 82.5266 192.046 81.7895C189.259 83.502 187.629 86.4469 186.756 89.7523C185.706 93.7274 185.81 98.0402 186.231 100.781C187.495 106.973 185.883 110.887 183.058 113.135C180.321 115.313 176.674 115.739 174.187 115.506L174.124 115.5L174.062 115.486C164.787 113.427 157.978 114.94 155.868 115.862L155.81 115.888L155.748 115.906C152.968 116.723 150.067 118.624 147.534 120.739C145.014 122.843 142.938 125.09 141.811 126.498L141.775 126.541L141.736 126.581C139.178 129.136 138.378 130.938 138.252 132.044C138.148 132.953 138.488 133.429 138.769 133.642L138.884 133.717L138.93 133.742L138.974 133.773C140.888 135.111 142.293 136.959 143.27 138.686C144.125 140.196 144.678 141.66 144.965 142.703L145.072 143.123L145.085 143.179L145.091 143.235C145.35 145.477 145.696 146.858 146.043 147.646C146.229 148.069 146.372 148.235 146.443 148.295C146.465 148.284 146.496 148.266 146.534 148.238C146.658 148.147 146.814 147.993 146.991 147.763C147.344 147.302 147.685 146.663 147.958 146.018L148.076 145.735L148.275 145.602C148.277 145.599 148.281 145.596 148.284 145.592C148.321 145.541 148.375 145.455 148.445 145.325C148.584 145.064 148.747 144.694 148.931 144.224C149.296 143.288 149.706 142.041 150.12 140.664C150.949 137.915 151.775 134.72 152.283 132.618C153.349 127.693 156.686 124.83 158.613 123.804L158.979 123.623C161.673 122.383 164.201 123.111 166.151 124.387C167.96 125.57 169.371 127.277 170.189 128.587L170.345 128.843L170.371 128.89L170.394 128.938C171.12 130.533 172.249 131.176 173.375 131.387C174.56 131.608 175.779 131.35 176.517 131.043C177.079 130.782 177.772 130.721 178.401 130.725C179.088 130.729 179.853 130.814 180.605 130.935C182.09 131.174 183.625 131.572 184.608 131.873L184.942 131.966C188.399 132.971 191.95 135.466 194.957 138.105C198.071 140.84 200.712 143.828 202.21 145.77L202.429 146.046C203.497 147.421 204.099 148.686 204.278 149.856C204.474 151.139 204.15 152.232 203.511 153.103C202.311 154.739 200.102 155.477 198.555 155.717L198.556 155.718C196.491 156.131 193.987 155.44 191.841 154.557C189.649 153.654 187.616 152.459 186.399 151.623L186.392 151.618L186.385 151.613C184.103 149.985 182.327 149.728 181.089 149.931C179.823 150.138 178.983 150.847 178.617 151.369L178.566 151.441L178.504 151.505C177.561 152.446 177.224 153.223 177.16 153.819C177.097 154.406 177.28 154.971 177.688 155.533C178.491 156.638 180.032 157.532 181.359 158.037L181.622 158.132L181.709 158.163L181.791 158.209L182.044 158.361C183.28 159.13 184.039 160.103 184.173 161.278C184.31 162.481 183.753 163.59 183.049 164.487C181.639 166.284 179.157 167.852 177.364 168.748L177.263 168.798L177.155 168.826C170.388 170.516 168.476 173.941 168.28 175.017L168.256 175.147L168.2 175.268C166.762 178.32 163.363 183.738 159.746 189.212C156.112 194.711 152.211 200.34 149.726 203.845L149.711 203.865L149.696 203.884C143.582 211.688 142.034 222.191 142.034 226.431Z" fill="url(#paint0_linear_36_63)"/>
<defs>
<linearGradient id="paint0_linear_36_63" x1="230.966" y1="0.367682" x2="230.966" y2="442" gradientUnits="userSpaceOnUse">
<stop stop-color="#BFCEFF"/>
<stop offset="1" stop-color="#E1ECFB"/>
</linearGradient>
</defs>
</svg>
