<svg width="40" height="40" viewBox="0 0 40 40" fill="none" xmlns="http://www.w3.org/2000/svg">
<path d="M20.0002 36.6663C17.6946 36.6663 15.5279 36.2288 13.5002 35.3538C11.4724 34.4788 9.7085 33.2913 8.2085 31.7913C6.7085 30.2913 5.521 28.5275 4.646 26.4997C3.771 24.4719 3.3335 22.3052 3.3335 19.9997C3.3335 17.6941 3.771 15.5275 4.646 13.4997C5.521 11.4719 6.7085 9.70801 8.2085 8.20801C9.7085 6.70801 11.4724 5.52051 13.5002 4.64551C15.5279 3.77051 17.6946 3.33301 20.0002 3.33301C24.0557 3.33301 27.6043 4.60384 30.646 7.14551C33.6877 9.68717 35.5835 12.8747 36.3335 16.708H32.9168C32.3891 14.6802 31.4377 12.8677 30.0627 11.2705C28.6877 9.67329 27.0002 8.4719 25.0002 7.66634V8.33301C25.0002 9.24967 24.6738 10.0344 24.021 10.6872C23.3682 11.34 22.5835 11.6663 21.6668 11.6663H18.3335V14.9997C18.3335 15.4719 18.1738 15.8677 17.8543 16.1872C17.5349 16.5066 17.1391 16.6663 16.6668 16.6663H13.3335V19.9997H16.6668V24.9997H15.0002L7.00016 16.9997C6.91683 17.4997 6.84044 17.9997 6.771 18.4997C6.70155 18.9997 6.66683 19.4997 6.66683 19.9997C6.66683 23.6386 7.94461 26.7636 10.5002 29.3747C13.0557 31.9858 16.2224 33.3052 20.0002 33.333V36.6663ZM35.1668 35.833L29.8335 30.4997C29.2502 30.833 28.6252 31.1108 27.9585 31.333C27.2918 31.5552 26.5835 31.6663 25.8335 31.6663C23.7502 31.6663 21.9793 30.9372 20.521 29.4788C19.0627 28.0205 18.3335 26.2497 18.3335 24.1663C18.3335 22.083 19.0627 20.3122 20.521 18.8538C21.9793 17.3955 23.7502 16.6663 25.8335 16.6663C27.9168 16.6663 29.6877 17.3955 31.146 18.8538C32.6043 20.3122 33.3335 22.083 33.3335 24.1663C33.3335 24.9163 33.2224 25.6247 33.0002 26.2913C32.7779 26.958 32.5002 27.583 32.1668 28.1663L37.5002 33.4997L35.1668 35.833ZM25.8335 28.333C27.0002 28.333 27.9863 27.9302 28.7918 27.1247C29.5974 26.3191 30.0002 25.333 30.0002 24.1663C30.0002 22.9997 29.5974 22.0136 28.7918 21.208C27.9863 20.4025 27.0002 19.9997 25.8335 19.9997C24.6668 19.9997 23.6807 20.4025 22.8752 21.208C22.0696 22.0136 21.6668 22.9997 21.6668 24.1663C21.6668 25.333 22.0696 26.3191 22.8752 27.1247C23.6807 27.9302 24.6668 28.333 25.8335 28.333Z" fill="#0666EB" fill-opacity="0.42"/>
</svg>
