<svg width="37" height="37" viewBox="0 0 37 37" fill="none" xmlns="http://www.w3.org/2000/svg">
<path d="M13.8776 19.2715H15.4193V16.1882H16.9609C17.3977 16.1882 17.7639 16.0404 18.0594 15.7449C18.3549 15.4494 18.5026 15.0833 18.5026 14.6465V13.1048C18.5026 12.668 18.3549 12.3019 18.0594 12.0064C17.7639 11.7109 17.3977 11.5632 16.9609 11.5632H13.8776V19.2715ZM15.4193 14.6465V13.1048H16.9609V14.6465H15.4193ZM20.0443 19.2715H23.1276C23.5644 19.2715 23.9306 19.1237 24.226 18.8283C24.5215 18.5328 24.6693 18.1666 24.6693 17.7298V13.1048C24.6693 12.668 24.5215 12.3019 24.226 12.0064C23.9306 11.7109 23.5644 11.5632 23.1276 11.5632H20.0443V19.2715ZM21.5859 17.7298V13.1048H23.1276V17.7298H21.5859ZM26.2109 19.2715H27.7526V16.1882H29.2943V14.6465H27.7526V13.1048H29.2943V11.5632H26.2109V19.2715ZM12.3359 27.7507C11.488 27.7507 10.7622 27.4487 10.1583 26.8449C9.55451 26.2411 9.2526 25.5152 9.2526 24.6673V6.16732C9.2526 5.3194 9.55451 4.59353 10.1583 3.98971C10.7622 3.38589 11.488 3.08398 12.3359 3.08398H30.8359C31.6839 3.08398 32.4097 3.38589 33.0135 3.98971C33.6174 4.59353 33.9193 5.3194 33.9193 6.16732V24.6673C33.9193 25.5152 33.6174 26.2411 33.0135 26.8449C32.4097 27.4487 31.6839 27.7507 30.8359 27.7507H12.3359ZM6.16927 33.9173C5.32135 33.9173 4.59549 33.6154 3.99167 33.0116C3.38785 32.4078 3.08594 31.6819 3.08594 30.834V9.25065H6.16927V30.834H27.7526V33.9173H6.16927Z" fill="#D23A3B"/>
</svg>
