<svg width="8" height="12" viewBox="0 0 8 12" fill="none" xmlns="http://www.w3.org/2000/svg">
<path d="M2.87307 8.51742V8.40859C2.88064 7.69833 2.95066 7.13317 3.08313 6.71313C3.21938 6.29308 3.41241 5.95322 3.66221 5.69356C3.912 5.43389 4.2129 5.19714 4.56488 4.98329C4.79197 4.83819 4.99635 4.67589 5.17802 4.49642C5.35969 4.31695 5.50351 4.11074 5.60949 3.8778C5.71546 3.64487 5.76845 3.38711 5.76845 3.10453C5.76845 2.76468 5.68897 2.47064 5.53001 2.22243C5.37105 1.97422 5.1591 1.78329 4.89416 1.64964C4.63301 1.51217 4.34158 1.44344 4.01987 1.44344C3.72844 1.44344 3.45026 1.50453 3.18532 1.62673C2.92038 1.74893 2.70087 1.93986 2.52676 2.19952C2.35266 2.45537 2.25237 2.78568 2.22587 3.19045H0.5C0.526494 2.5031 0.698702 1.92267 1.01663 1.44916C1.33455 0.971838 1.75466 0.610979 2.27697 0.366587C2.80306 0.122196 3.38402 0 4.01987 0C4.71628 0 5.32563 0.131742 5.84793 0.395227C6.37024 0.654893 6.77521 1.01957 7.06286 1.48926C7.35429 1.95513 7.5 2.49928 7.5 3.12172C7.5 3.5494 7.43377 3.93508 7.3013 4.27876C7.16883 4.61862 6.97959 4.9222 6.73358 5.1895C6.49135 5.4568 6.19992 5.69356 5.85929 5.89976C5.53758 6.10215 5.27643 6.31217 5.07583 6.52983C4.87902 6.74749 4.7352 7.00525 4.64436 7.3031C4.55353 7.60095 4.50433 7.96945 4.49676 8.40859V8.51742H2.87307ZM3.73033 12C3.41998 12 3.15315 11.8893 2.92985 11.6678C2.70654 11.4425 2.59489 11.1714 2.59489 10.8544C2.59489 10.5413 2.70654 10.274 2.92985 10.0525C3.15315 9.82721 3.41998 9.71456 3.73033 9.71456C4.0369 9.71456 4.30184 9.82721 4.52514 10.0525C4.75223 10.274 4.86577 10.5413 4.86577 10.8544C4.86577 11.0644 4.81279 11.2573 4.70681 11.4329C4.60462 11.6048 4.46837 11.7422 4.29805 11.8453C4.12774 11.9484 3.9385 12 3.73033 12Z" fill="white"/>
</svg>
