<svg width="18" height="18" viewBox="0 0 18 18" fill="none" xmlns="http://www.w3.org/2000/svg">
<path fill-rule="evenodd" clip-rule="evenodd" d="M13.5 8C13.5 11.0376 11.0376 13.5 8 13.5C4.96243 13.5 2.5 11.0376 2.5 8C2.5 4.96243 4.96243 2.5 8 2.5C11.0376 2.5 13.5 4.96243 13.5 8ZM12.436 13.4153C11.2284 14.4056 9.6836 15 8 15C4.13401 15 1 11.866 1 8C1 4.13401 4.13401 1 8 1C11.866 1 15 4.13401 15 8C15 9.65327 14.4269 11.1727 13.4684 12.3704C13.5118 12.3985 13.5529 12.4316 13.591 12.4697L16.5303 15.409C16.8232 15.7019 16.8232 16.1768 16.5303 16.4697C16.2374 16.7626 15.7626 16.7626 15.4697 16.4697L12.5303 13.5303C12.4945 13.4945 12.463 13.4559 12.436 13.4153Z" fill="#B0B0B0"/>
</svg>
