<svg width="16" height="16" viewBox="0 0 16 16" fill="none" xmlns="http://www.w3.org/2000/svg">
<path fill-rule="evenodd" clip-rule="evenodd" d="M7.28252 0.0198094C6.61535 0.0888337 5.82199 0.267151 5.2617 0.474005C4.80919 0.641059 4.06439 1.01487 3.67543 1.2701C2.42867 2.08822 1.45779 3.18141 0.826151 4.47832C0.54705 5.05138 0.402716 5.4369 0.265573 5.97573C-0.0885243 7.36673 -0.0885243 8.63 0.265573 10.021C0.403873 10.5643 0.548207 10.9494 0.827183 11.5192C1.94234 13.7971 4.06295 15.4061 6.56095 15.8698C7.92845 16.1236 9.40808 16.0036 10.7056 15.5335C11.5187 15.2389 12.4723 14.6899 13.1284 14.1386C14.4055 13.0657 15.3626 11.5441 15.7508 9.96959C15.9659 9.0974 16.0391 8.30722 15.9806 7.48991C15.9001 6.36406 15.6622 5.47325 15.1761 4.47832C14.3985 2.88647 13.1034 1.58991 11.5184 0.816561C10.7272 0.430513 10.0172 0.207045 9.17383 0.0785708C8.70917 0.00782563 7.70124 -0.023495 7.28252 0.0198094ZM11.5275 5.11671C11.8423 5.27826 11.9628 5.6308 11.8076 5.9358C11.7018 6.14357 7.44883 10.8155 7.30238 10.8848C7.14938 10.9572 6.90408 10.9551 6.75765 10.8803C6.59812 10.7987 4.23026 8.37737 4.17083 8.23504C3.97195 7.75859 4.42352 7.2641 4.9283 7.40556C5.05787 7.44185 5.1717 7.5462 6.04583 8.43003L7.01909 9.41405L8.9461 7.28929C10.1189 5.9961 10.9138 5.14428 10.977 5.11283C11.1211 5.04112 11.3839 5.04296 11.5275 5.11671Z" fill="#045FDD"/>
</svg>
