<svg width="28" height="29" viewBox="0 0 28 29" fill="none" xmlns="http://www.w3.org/2000/svg">
<path fill-rule="evenodd" clip-rule="evenodd" d="M2.34067 0.178749C1.67043 0.413226 1.01987 0.911421 0.612851 1.50174C-0.0132103 2.40986 2.17643e-05 2.17857 2.17643e-05 12.2037V21.4253L0.26849 21.695C0.813847 22.2434 0.964102 22.162 3.82102 19.7695L6.44249 17.5741L13.3094 17.5435C20.0926 17.5131 20.1824 17.51 20.6897 17.2743C21.3472 16.9689 22.1502 16.1617 22.454 15.5007C22.6887 14.9903 22.6913 14.9148 22.6913 8.7735C22.6913 2.63224 22.6887 2.55672 22.454 2.04632C22.1502 1.38532 21.3472 0.578119 20.6897 0.272738C20.178 0.0350726 20.1451 0.0340832 11.537 0.00890963C3.50881 -0.0145051 2.85858 -0.00252292 2.34067 0.178749ZM20.0163 1.98542C20.3728 2.16614 20.5705 2.3649 20.7503 2.72326C20.9958 3.21266 20.9963 3.2264 20.9963 8.7735C20.9963 14.3206 20.9958 14.3343 20.7503 14.8237C20.5705 15.1821 20.3728 15.3809 20.0163 15.5616L19.5283 15.8089H12.6644H5.80047L3.83108 17.4578C2.74791 18.3648 1.83654 19.1068 1.8057 19.1068C1.77486 19.1068 1.74971 15.5308 1.74971 11.1603V3.21376L1.99576 2.72326C2.17554 2.3649 2.37326 2.16614 2.72976 1.98542L3.2177 1.73808H11.373H19.5283L20.0163 1.98542ZM5.51756 5.52567C5.34828 5.69573 5.24909 5.92108 5.24909 6.13522C5.24909 6.34936 5.34828 6.57471 5.51756 6.74477L5.78592 7.01465H11.373H16.9601L17.2285 6.74477C17.3977 6.57471 17.4969 6.34936 17.4969 6.13522C17.4969 5.92108 17.3977 5.69573 17.2285 5.52567L16.9601 5.25579H11.373H5.78592L5.51756 5.52567ZM23.9036 7.27001C23.3598 7.81668 23.7188 8.7735 24.4676 8.7735C25.0412 8.7735 25.7296 9.22014 26.0001 9.76769L26.2469 10.2673L26.2188 17.8071L26.1907 25.3469L24.6268 24.0955L23.063 22.8443H16.6397H10.2165L9.72852 22.597C9.05511 22.2557 8.74848 21.6362 8.74848 20.6175C8.74848 19.9665 8.71272 19.8303 8.48001 19.5965C8.11979 19.2343 7.62244 19.2393 7.25479 19.6089C6.98424 19.8809 6.9756 19.9302 7.01978 20.9555C7.05303 21.7259 7.12957 22.1624 7.29689 22.5361C7.59106 23.1929 8.3934 24.0023 9.05511 24.3097C9.56099 24.5447 9.664 24.5487 15.9979 24.5791L22.427 24.6099L24.6126 26.3655C27.0002 28.2832 27.2015 28.379 27.7291 27.8486L28 27.5763L27.9703 18.5871C27.9405 9.6261 27.9396 9.59631 27.7031 9.08174C27.3982 8.41832 26.5908 7.60826 25.9512 7.32387C25.6755 7.2013 25.1657 7.07511 24.8182 7.04345C24.2453 6.99123 24.16 7.01234 23.9036 7.27001ZM5.51756 9.04338C5.34828 9.21343 5.24909 9.43879 5.24909 9.65293C5.24909 9.86707 5.34828 10.0924 5.51756 10.2625L5.78592 10.5324H9.62332H13.4607L13.7291 10.2625C13.8984 10.0924 13.9975 9.86707 13.9975 9.65293C13.9975 9.43879 13.8984 9.21343 13.7291 9.04338L13.4607 8.7735H9.62332H5.78592L5.51756 9.04338Z" fill="#0666EB"/>
</svg>
