<svg width="49" height="35" viewBox="0 0 49 35" fill="none" xmlns="http://www.w3.org/2000/svg">
<path d="M12.25 35C8.87197 35 5.9858 33.8516 3.59148 31.5547C1.19716 29.2578 0 26.4505 0 23.1328C0 20.2891 0.872348 17.7552 2.61705 15.5312C4.36174 13.3073 6.6447 11.8854 9.46591 11.2656C10.3939 7.91146 12.25 5.19531 15.0341 3.11719C17.8182 1.03906 20.9735 0 24.5 0C28.8432 0 32.5275 1.48568 35.5528 4.45703C38.5782 7.42839 40.0909 11.0469 40.0909 15.3125C42.6523 15.6042 44.7775 16.6888 46.4665 18.5664C48.1555 20.444 49 22.6406 49 25.1562C49 27.8906 48.0256 30.2148 46.0767 32.1289C44.1278 34.043 41.7614 35 38.9773 35H26.7273C25.5023 35 24.4536 34.5716 23.5812 33.7148C22.7089 32.8581 22.2727 31.8281 22.2727 30.625V19.3594L18.7091 22.75L15.5909 19.6875L24.5 10.9375L33.4091 19.6875L30.2909 22.75L26.7273 19.3594V30.625H38.9773C40.5364 30.625 41.8542 30.0964 42.9307 29.0391C44.0072 27.9818 44.5455 26.6875 44.5455 25.1562C44.5455 23.625 44.0072 22.3307 42.9307 21.2734C41.8542 20.2161 40.5364 19.6875 38.9773 19.6875H35.6364V15.3125C35.6364 12.2865 34.5506 9.70703 32.379 7.57422C30.2074 5.44141 27.5811 4.375 24.5 4.375C21.4189 4.375 18.7926 5.44141 16.621 7.57422C14.4494 9.70703 13.3636 12.2865 13.3636 15.3125H12.25C10.097 15.3125 8.25947 16.0599 6.7375 17.5547C5.21553 19.0495 4.45455 20.8542 4.45455 22.9688C4.45455 25.0833 5.21553 26.888 6.7375 28.3828C8.25947 29.8776 10.097 30.625 12.25 30.625H17.8182V35H12.25Z" fill="#C1D8F9"/>
</svg>
