<svg width="33" height="39" viewBox="0 0 33 39" fill="none" xmlns="http://www.w3.org/2000/svg">
<path fill-rule="evenodd" clip-rule="evenodd" d="M5.25351 0.213293C4.49095 0.436029 3.8804 0.816429 3.30658 1.42641C2.11984 2.68772 2.17256 2.24589 2.12095 11.3601L2.07471 19.5322H1.59035C1.25056 19.5322 0.945284 19.6865 0.567647 20.0491L0.0292969 20.5661V26.2944V32.0228L0.480561 32.4559C0.728677 32.6943 1.18247 32.9344 1.48886 32.9896L2.04605 33.0899L2.12902 34.4832C2.17541 35.2586 2.32663 36.1307 2.47024 36.4498C2.817 37.2208 3.74376 38.1812 4.53117 38.586C5.1745 38.9166 5.18954 38.9171 17.2753 38.9588C30.6025 39.0047 30.2111 39.0293 31.4251 38.0686C31.7489 37.8121 32.2098 37.2824 32.4492 36.8913L32.8845 36.1804L32.9276 23.0332L32.9705 9.88613L27.8615 4.97863L22.7527 0.0712891L14.2015 0.0843644C9.4984 0.0915102 5.4717 0.149589 5.25351 0.213293ZM21.7251 5.58268C21.7289 8.8097 21.8418 9.30124 22.7705 10.1341C23.5101 10.7976 23.9241 10.866 27.1946 10.866H30.2719V23.1928V35.5197L29.8091 35.9641L29.3463 36.4085H17.6196H5.89288L5.37749 35.9663C4.88933 35.5475 4.85925 35.4598 4.80415 34.2939L4.74588 33.0636H15.2287C24.6029 33.0636 25.7691 33.0373 26.2569 32.815C27.275 32.3512 27.2796 32.3189 27.2294 26.0545L27.1843 20.4192L26.6672 19.9757L26.1501 19.5322H15.4606H4.77121L4.81491 11.5376L4.85862 3.54309L5.37575 3.09944L5.89288 2.65594H13.8073H21.7216L21.7251 5.58268ZM8.01921 23.0434C9.27277 23.3465 9.97199 24.477 9.6797 25.7278C9.4433 26.739 8.26986 27.4353 6.79826 27.4373L6.20449 27.4382V28.6545V29.8708H5.4128H4.62111V26.46V23.0493L5.05654 22.9859C5.95384 22.8555 7.35387 22.8827 8.01921 23.0434ZM15.467 23.333C16.7929 23.9494 17.3802 25.0489 17.257 26.6844C17.0934 28.8573 15.4388 30.0229 12.5178 30.0229C10.8237 30.0229 10.9546 30.3227 10.9546 26.4437V23.0493L11.3901 22.9759C11.6296 22.9356 12.4861 22.9257 13.2935 22.9538C14.3925 22.9921 14.9389 23.0875 15.467 23.333ZM22.83 23.6372V24.2454H21.3967H19.9633L20.0113 25.0436L20.0591 25.8418L21.3654 25.8859L22.6717 25.9301V26.5321V27.1341H21.3258H19.9799V28.5025V29.8708H19.1882H18.3965V26.45V23.0291H20.6133H22.83V23.6372ZM6.20449 25.1576V26.2219H6.82027C7.63634 26.2219 8.11912 25.8366 8.13891 25.1695C8.1587 24.499 7.66168 24.0934 6.82027 24.0934H6.20449V25.1576ZM12.538 26.45V28.8066L13.1318 28.8062C14.5507 28.8058 15.5468 27.8084 15.5458 26.3894C15.5449 24.9118 14.7003 24.0934 13.1764 24.0934H12.538V26.45Z" fill="#B7D1F7"/>
</svg>
