<svg width="249" height="76" viewBox="0 0 249 76" fill="none" xmlns="http://www.w3.org/2000/svg">
<path d="M249 31.4018C249 32.9642 248.797 34.3743 248.391 35.6323C248.006 36.8699 247.489 37.9656 246.84 38.9192C246.191 39.8728 245.43 40.6844 244.558 41.354C243.686 42.0235 242.783 42.5713 241.85 42.9974C240.917 43.4235 239.964 43.738 238.99 43.9409C238.037 44.1438 237.134 44.2452 236.282 44.2452H205.765V36.3323H236.282C237.803 36.3323 238.98 35.8859 239.811 34.9931C240.663 34.1004 241.089 32.9033 241.089 31.4018C241.089 30.6714 240.978 30.0019 240.755 29.3932C240.531 28.7845 240.207 28.2569 239.781 27.8106C239.375 27.3642 238.868 27.0193 238.26 26.7758C237.672 26.5323 237.012 26.4106 236.282 26.4106H218.088C216.81 26.4106 215.431 26.1874 213.95 25.741C212.469 25.2744 211.09 24.5338 209.812 23.5193C208.554 22.5048 207.5 21.1758 206.648 19.5324C205.816 17.8889 205.4 15.8802 205.4 13.5063C205.4 11.1324 205.816 9.13388 206.648 7.5107C207.5 5.86723 208.554 4.53826 209.812 3.52377C211.09 2.48899 212.469 1.74842 213.95 1.30205C215.431 0.835383 216.81 0.602051 218.088 0.602051H245.014V8.51504H218.088C216.587 8.51504 215.41 8.97156 214.558 9.8846C213.727 10.7976 213.311 12.0049 213.311 13.5063C213.311 15.028 213.727 16.2353 214.558 17.128C215.41 18.0005 216.587 18.4367 218.088 18.4367H236.282H236.343C237.195 18.457 238.097 18.5787 239.051 18.8019C240.004 19.0048 240.947 19.3295 241.88 19.7758C242.834 20.2222 243.736 20.7903 244.588 21.4802C245.44 22.1497 246.191 22.9613 246.84 23.9149C247.509 24.8686 248.036 25.9642 248.422 27.2019C248.807 28.4396 249 29.8395 249 31.4018Z" fill="#2B2C30"/>
<path d="M202.113 44.2452H190.887L173.088 26.4106H167.52V18.4367H173.088L190.887 0.602051H202.113L179.69 22.4236L202.113 44.2452ZM164.356 44.2452H156.445V0.602051H164.356V44.2452Z" fill="#2B2C30"/>
<path d="M147.168 40.867C147.168 41.4352 147.056 41.9627 146.833 42.4496C146.63 42.9366 146.346 43.3627 145.981 43.7279C145.636 44.0728 145.221 44.3467 144.734 44.5496C144.247 44.7525 143.73 44.854 143.182 44.854C142.695 44.854 142.198 44.7627 141.691 44.5801C141.204 44.3975 140.768 44.1033 140.383 43.6975L111.479 13.5063V44.2453H103.568V3.98031C103.568 3.16873 103.791 2.4383 104.238 1.78902C104.704 1.11946 105.292 0.622365 106.002 0.29773C106.753 -0.00661636 107.524 -0.0776302 108.315 0.0846876C109.106 0.226716 109.785 0.591931 110.353 1.18033L139.257 31.341V0.602076H147.168V40.867Z" fill="#2B2C30"/>
<path d="M94.3474 44.2452H86.4368V33.5323H58.6281V44.2452H50.7175V22.4236C50.7175 19.2382 51.2652 16.3063 52.3605 13.6281C53.4558 10.9498 54.9771 8.64692 56.9243 6.7194C58.8715 4.79188 61.1737 3.29044 63.8308 2.21508C66.488 1.13973 69.3885 0.602051 72.5325 0.602051H90.3617C90.9094 0.602051 91.4266 0.703499 91.9134 0.906397C92.4002 1.10929 92.8262 1.39335 93.1913 1.75857C93.5564 2.12378 93.8403 2.54986 94.0432 3.03682C94.246 3.52377 94.3474 4.04116 94.3474 4.58898V44.2452ZM58.6281 25.6193H86.4368V8.51504H72.5325C72.2891 8.51504 71.7718 8.55562 70.9808 8.63678C70.21 8.69765 69.3074 8.87011 68.2729 9.15417C67.2588 9.43822 66.1837 9.87445 65.0478 10.4629C63.912 11.0513 62.8674 11.8628 61.914 12.8976C60.9607 13.9324 60.1697 15.2309 59.5409 16.7932C58.9324 18.3353 58.6281 20.2121 58.6281 22.4236V25.6193Z" fill="#2B2C30"/>
<path d="M43.5995 15.2715C43.5995 17.0773 43.3764 18.6903 42.9301 20.1106C42.4839 21.5309 41.8754 22.7889 41.1046 23.8845C40.3541 24.9599 39.4819 25.883 38.488 26.6541C37.4941 27.4251 36.4495 28.0642 35.3542 28.5714C34.2792 29.0584 33.1839 29.4135 32.0683 29.6366C30.973 29.8598 29.9385 29.9714 28.9649 29.9714L45.4858 44.2452H33.2549L16.7643 29.9714H11.0748V22.0584H28.9649C29.9588 21.9773 30.8614 21.7744 31.6727 21.4497C32.5044 21.1048 33.2143 20.6483 33.8025 20.0802C34.411 19.5121 34.8775 18.8324 35.2021 18.0411C35.5266 17.2295 35.6889 16.3063 35.6889 15.2715V10.2802C35.6889 9.83387 35.628 9.49909 35.5063 9.27591C35.4049 9.03243 35.2629 8.85997 35.0804 8.75852C34.9181 8.63678 34.7356 8.56577 34.5327 8.54548C34.3502 8.52519 34.1778 8.51504 34.0155 8.51504H7.91058V44.2452H0V4.58898C0 4.04116 0.101418 3.52377 0.304253 3.03682C0.507088 2.54986 0.780916 2.12378 1.12574 1.75857C1.49084 1.39335 1.91679 1.10929 2.4036 0.906397C2.8904 0.703499 3.41778 0.602051 3.98571 0.602051H34.0155C35.7802 0.602051 37.271 0.926686 38.488 1.57596C39.705 2.20494 40.6888 3.00638 41.4393 3.98029C42.21 4.93391 42.7577 5.96868 43.0822 7.08462C43.4271 8.20055 43.5995 9.24547 43.5995 10.2194V15.2715Z" fill="#2B2C30"/>
<path d="M63.0138 68.4774C63.0138 68.7766 62.9529 69.0592 62.831 69.3251C62.7201 69.58 62.565 69.8072 62.3655 70.0067C62.1771 70.1951 61.9499 70.3447 61.684 70.4555C61.4291 70.5663 61.1576 70.6217 60.8695 70.6217C60.5702 70.6217 60.2877 70.5663 60.0217 70.4555C59.7668 70.3447 59.5396 70.1951 59.3401 70.0067C59.1518 69.8072 59.0021 69.58 58.8913 69.3251C58.7805 69.0592 58.7251 68.7766 58.7251 68.4774C58.7251 68.1892 58.7805 67.9177 58.8913 67.6628C59.0021 67.3969 59.1518 67.1697 59.3401 66.9813C59.5396 66.7818 59.7668 66.6267 60.0217 66.5159C60.2877 66.394 60.5702 66.333 60.8695 66.333C61.1576 66.333 61.4291 66.394 61.684 66.5159C61.9499 66.6267 62.1771 66.7818 62.3655 66.9813C62.565 67.1697 62.7201 67.3969 62.831 67.6628C62.9529 67.9177 63.0138 68.1892 63.0138 68.4774Z" fill="#2B2C30"/>
<path d="M190.868 61.3906H185.508V71.0824H182.404V61.3906H178.414V58.3214H182.404V54.1543H185.508V58.3214H190.868V61.3906Z" fill="#2B2C30"/>
<path d="M176.714 66.7735C176.714 67.3008 176.647 67.7769 176.513 68.2019C176.379 68.619 176.202 68.9889 175.982 69.3115C175.761 69.6263 175.506 69.8978 175.214 70.1261C174.923 70.3464 174.616 70.5274 174.294 70.6691C173.979 70.8107 173.656 70.917 173.326 70.9878C173.003 71.0508 172.696 71.0823 172.405 71.0823H166.868C166.444 71.0823 165.979 71.0075 165.476 70.858C164.972 70.7084 164.504 70.4645 164.071 70.1261C163.646 69.7798 163.288 69.3352 162.997 68.7921C162.713 68.2412 162.572 67.5684 162.572 66.7735V62.6182C162.572 61.8312 162.713 61.1662 162.997 60.6232C163.288 60.0723 163.646 59.6277 164.071 59.2893C164.504 58.943 164.972 58.6951 165.476 58.5456C165.979 58.3961 166.444 58.3213 166.868 58.3213H172.405C173.192 58.3213 173.861 58.4629 174.412 58.7463C174.963 59.0296 175.407 59.3877 175.746 59.8205C176.084 60.2455 176.328 60.7098 176.478 61.2135C176.635 61.7171 176.714 62.1854 176.714 62.6182V66.7735ZM173.644 62.6418C173.644 62.2169 173.538 61.9021 173.326 61.6975C173.113 61.4928 172.806 61.3905 172.405 61.3905H166.892C166.483 61.3905 166.172 61.4968 165.96 61.7093C165.747 61.9139 165.641 62.2169 165.641 62.6182V66.7735C165.641 67.1749 165.747 67.4818 165.96 67.6943C166.172 67.9068 166.483 68.013 166.892 68.013H172.405C172.822 68.013 173.133 67.9068 173.337 67.6943C173.542 67.4818 173.644 67.1749 173.644 66.7735V62.6418Z" fill="#2B2C30"/>
<path d="M160.86 71.0825H159.491C159.05 71.0825 158.578 71.0077 158.074 70.8582C157.578 70.7087 157.114 70.4647 156.681 70.1263C156.248 69.7801 155.89 69.3354 155.607 68.7924C155.324 68.2415 155.182 67.5686 155.182 66.7738V52.9268H158.251V66.7738C158.251 67.1515 158.369 67.4545 158.606 67.6827C158.842 67.9031 159.137 68.0133 159.491 68.0133H160.86V71.0825Z" fill="#2B2C30"/>
<path d="M152.302 55.7009H149.232V52.9268H152.302V55.7009ZM152.302 71.0825H149.232V58.3215H152.302V71.0825Z" fill="#2B2C30"/>
<path d="M146.565 66.7735C146.565 67.3008 146.498 67.7769 146.364 68.2019C146.23 68.619 146.053 68.9889 145.833 69.3115C145.612 69.6263 145.357 69.8978 145.066 70.1261C144.774 70.3464 144.467 70.5274 144.145 70.6691C143.83 70.8107 143.511 70.917 143.189 70.9878C142.866 71.0508 142.559 71.0823 142.268 71.0823H136.731V68.013H142.268C142.677 68.013 142.984 67.9068 143.189 67.6943C143.393 67.4818 143.495 67.1749 143.495 66.7735V62.6418C143.495 62.2169 143.389 61.9021 143.177 61.6975C142.972 61.4928 142.669 61.3905 142.268 61.3905H136.755C136.338 61.3905 136.023 61.4968 135.811 61.7093C135.598 61.9139 135.492 62.2169 135.492 62.6182V75.0723H132.423V62.6182C132.423 62.0909 132.489 61.6188 132.623 61.2017C132.757 60.7846 132.934 60.4186 133.155 60.1038C133.383 59.7811 133.642 59.5096 133.934 59.2893C134.225 59.0611 134.528 58.8761 134.843 58.7345C135.165 58.5928 135.488 58.4905 135.811 58.4275C136.141 58.3567 136.448 58.3213 136.731 58.3213H142.268C142.795 58.3213 143.267 58.3882 143.684 58.522C144.101 58.6558 144.467 58.8328 144.782 59.0532C145.105 59.2735 145.376 59.5293 145.597 59.8205C145.825 60.1117 146.01 60.4186 146.152 60.7413C146.293 61.0561 146.396 61.3748 146.458 61.6975C146.529 62.0201 146.565 62.327 146.565 62.6182V66.7735Z" fill="#2B2C30"/>
<path d="M129.873 66.7735C129.873 67.3008 129.806 67.7769 129.672 68.2019C129.539 68.619 129.362 68.9889 129.141 69.3115C128.921 69.6263 128.665 69.8978 128.374 70.1261C128.083 70.3464 127.776 70.5274 127.453 70.6691C127.138 70.8107 126.816 70.917 126.485 70.9878C126.162 71.0508 125.856 71.0823 125.564 71.0823H120.028C119.603 71.0823 119.139 71.0075 118.635 70.858C118.131 70.7084 117.663 70.4645 117.23 70.1261C116.805 69.7798 116.447 69.3352 116.156 68.7921C115.873 68.2412 115.731 67.5684 115.731 66.7735V62.6182C115.731 61.8312 115.873 61.1662 116.156 60.6232C116.447 60.0723 116.805 59.6277 117.23 59.2893C117.663 58.943 118.131 58.6951 118.635 58.5456C119.139 58.3961 119.603 58.3213 120.028 58.3213H125.564C126.351 58.3213 127.02 58.4629 127.571 58.7463C128.122 59.0296 128.567 59.3877 128.905 59.8205C129.243 60.2455 129.487 60.7098 129.637 61.2135C129.794 61.7171 129.873 62.1854 129.873 62.6182V66.7735ZM126.804 62.6418C126.804 62.2169 126.698 61.9021 126.485 61.6975C126.273 61.4928 125.966 61.3905 125.564 61.3905H120.052C119.642 61.3905 119.331 61.4968 119.119 61.7093C118.906 61.9139 118.8 62.2169 118.8 62.6182V66.7735C118.8 67.1749 118.906 67.4818 119.119 67.6943C119.331 67.9068 119.642 68.013 120.052 68.013H125.564C125.981 68.013 126.292 67.9068 126.497 67.6943C126.702 67.4818 126.804 67.1749 126.804 66.7735V62.6418Z" fill="#2B2C30"/>
<path d="M114.019 61.3906H108.66V71.0824H105.555V61.3906H101.565V58.3214H105.555V54.1543H108.66V58.3214H114.019V61.3906Z" fill="#2B2C30"/>
<path d="M99.5342 69.5358C99.5342 69.7562 99.4949 69.9608 99.4162 70.1497C99.3375 70.3386 99.2273 70.5038 99.0856 70.6455C98.9518 70.7793 98.7905 70.8855 98.6016 70.9642C98.4206 71.0429 98.2239 71.0823 98.0114 71.0823H91.0702C90.6924 71.0823 90.2871 71.039 89.8543 70.9524C89.4293 70.8658 89.0083 70.7281 88.5912 70.5392C88.1741 70.3425 87.7688 70.0985 87.3753 69.8073C86.9897 69.5083 86.6513 69.1502 86.3601 68.7331C86.0689 68.3081 85.8328 67.8202 85.6518 67.2693C85.4787 66.7184 85.3921 66.0967 85.3921 65.4042V58.3213H88.4613V65.4042C88.4613 65.8055 88.5282 66.1675 88.662 66.4902C88.8037 66.805 88.9925 67.0765 89.2286 67.3047C89.4647 67.533 89.7402 67.71 90.055 67.8359C90.3776 67.954 90.7239 68.013 91.0938 68.013H96.465V58.3213H99.5342V69.5358Z" fill="#2B2C30"/>
<path d="M82.9606 66.8561C82.9606 67.2811 82.8858 67.7415 82.7363 68.2373C82.5868 68.7252 82.3428 69.1817 82.0044 69.6067C81.6739 70.0238 81.2371 70.374 80.6941 70.6573C80.1589 70.9406 79.5057 71.0823 78.7345 71.0823H73.198C72.7731 71.0823 72.3127 71.0075 71.8169 70.858C71.3289 70.7084 70.8725 70.4684 70.4475 70.1379C70.0304 69.7995 69.6802 69.3627 69.3969 68.8275C69.1136 68.2845 68.9719 67.6274 68.9719 66.8561C68.9719 66.4312 69.0467 65.9708 69.1962 65.475C69.3457 64.9792 69.5858 64.5227 69.9163 64.1056C70.2547 63.6807 70.6915 63.3265 71.2266 63.0432C71.7697 62.7599 72.4268 62.6182 73.198 62.6182H78.7345V65.5458H73.198C72.7809 65.5458 72.4583 65.6757 72.23 65.9354C72.0018 66.1872 71.8877 66.502 71.8877 66.8798C71.8877 67.2811 72.0176 67.5959 72.2773 67.8241C72.5448 68.0445 72.8596 68.1547 73.2216 68.1547H78.7345C79.1516 68.1547 79.4742 68.0288 79.7025 67.7769C79.9307 67.5251 80.0448 67.2103 80.0448 66.8325V62.5474C80.0448 62.146 79.9189 61.8273 79.6671 61.5912C79.4231 61.3551 79.1122 61.2371 78.7345 61.2371H71.9939V58.3213H78.7345C79.1595 58.3213 79.6159 58.3961 80.1038 58.5456C80.5996 58.6951 81.0561 58.9391 81.4732 59.2775C81.8982 59.608 82.2523 60.0448 82.5356 60.5878C82.8189 61.123 82.9606 61.7762 82.9606 62.5474V66.8561Z" fill="#2B2C30"/>
</svg>
