<svg width="16" height="16" viewBox="0 0 16 16" fill="none" xmlns="http://www.w3.org/2000/svg">
<g clip-path="url(#clip0_861_874)">
<path d="M2.53238 14C0.977792 14 0.0175654 12.3041 0.817395 10.971L6.28501 1.85831C7.06182 0.563632 8.93818 0.563632 9.71499 1.85831L15.1826 10.971C15.9824 12.3041 15.0222 14 13.4676 14H2.53238ZM8.06137 11.6709C8.25217 11.6709 8.41237 11.6086 8.54197 11.4838C8.67158 11.3588 8.73638 11.204 8.73638 11.0196C8.73638 10.8222 8.67158 10.6612 8.54197 10.5365C8.41237 10.4114 8.25217 10.3489 8.06137 10.3489C7.85682 10.3489 7.68974 10.4146 7.56014 10.5459C7.43054 10.6776 7.36573 10.8355 7.36573 11.0196C7.36573 11.204 7.43397 11.3588 7.57045 11.4838C7.70692 11.6086 7.87056 11.6709 8.06137 11.6709ZM7.36573 9.42094H8.73638V5.15783H7.36573V9.42094Z" fill="#FFC83C"/>
<path d="M8.06135 11.6713C8.25216 11.6713 8.41236 11.6089 8.54196 11.4842C8.67156 11.3591 8.73637 11.2044 8.73637 11.02C8.73637 10.8226 8.67156 10.6616 8.54196 10.5368C8.41236 10.4118 8.25216 10.3493 8.06135 10.3493C7.8568 10.3493 7.68973 10.4149 7.56013 10.5463C7.43052 10.678 7.36572 10.8359 7.36572 11.02C7.36572 11.2044 7.43396 11.3591 7.57044 11.4842C7.70691 11.6089 7.87055 11.6713 8.06135 11.6713ZM7.36572 9.42132H8.73637V5.1582H7.36572V9.42132Z" fill="#121B2F"/>
</g>
<defs>
<clipPath id="clip0_861_874">
<rect width="16" height="16" fill="white"/>
</clipPath>
</defs>
</svg>
