<svg width="73" height="73" viewBox="0 0 73 73" fill="none" xmlns="http://www.w3.org/2000/svg">
<g clip-path="url(#clip0_603_56)">
<path d="M0 0H72.7871V72.7871H0V0Z" fill="white"/>
<path fill-rule="evenodd" clip-rule="evenodd" d="M79.2565 27.983L45.8095 69.0126L33.1371 57.786L15.6571 79.5542L12.2025 76.7802L32.5942 51.386L45.2921 62.6352L75.8224 25.1836L79.2565 27.983Z" fill="url(#paint0_linear_603_56)"/>
<path d="M56.0708 28.9165C56.0708 30.4811 55.8755 31.8787 55.485 33.1094C55.0945 34.34 54.562 35.4299 53.8875 36.3793C53.2307 37.311 52.4675 38.1109 51.5977 38.779C50.7279 39.447 49.8138 40.0008 48.8553 40.4403C47.9145 40.8622 46.956 41.1699 45.9797 41.3632C45.0212 41.5566 44.1159 41.6533 43.2639 41.6533L57.7216 54.0209H47.0181L32.5871 41.6533H27.6081V34.7971H43.2639C44.1337 34.7267 44.9236 34.5509 45.6336 34.2696C46.3614 33.9708 46.9826 33.5752 47.4974 33.083C48.0299 32.5907 48.4381 32.0018 48.7222 31.3162C49.0062 30.613 49.1482 29.8131 49.1482 28.9165V24.5918C49.1482 24.205 49.0949 23.9149 48.9884 23.7216C48.8997 23.5106 48.7754 23.3612 48.6156 23.2733C48.4736 23.1678 48.3139 23.1063 48.1364 23.0887C47.9766 23.0711 47.8258 23.0623 47.6838 23.0623H24.8391V54.0209H17.9164V19.6606C17.9164 19.1859 18.0052 18.7376 18.1827 18.3157C18.3602 17.8937 18.5998 17.5246 18.9016 17.2081C19.2211 16.8917 19.5938 16.6456 20.0198 16.4698C20.4459 16.294 20.9074 16.2061 21.4044 16.2061H47.6838C49.228 16.2061 50.5327 16.4873 51.5977 17.0499C52.6627 17.5949 53.5236 18.2893 54.1804 19.1331C54.8549 19.9594 55.3342 20.856 55.6182 21.8229C55.9199 22.7898 56.0708 23.6952 56.0708 24.539V28.9165Z" fill="#0F0E0E"/>
</g>
<defs>
<linearGradient id="paint0_linear_603_56" x1="67.0961" y1="23.7351" x2="16.4616" y2="76.9014" gradientUnits="userSpaceOnUse">
<stop stop-color="#579CFF"/>
<stop offset="1" stop-color="#579CFF" stop-opacity="0"/>
</linearGradient>
<clipPath id="clip0_603_56">
<rect width="73" height="73" rx="12.8447" fill="white"/>
</clipPath>
</defs>
</svg>
